<svg width="110" height="110" viewBox="0 0 110 110" fill="none" xmlns="http://www.w3.org/2000/svg">
<g clip-path="url(#clip0_281_2151)">
<path d="M36.3565 100.052C36.3565 99.2978 35.7452 98.6864 34.9912 98.6864C34.2372 98.6864 33.626 99.2978 33.626 100.052C33.626 100.806 34.2372 101.418 34.9912 101.418C35.7452 101.418 36.3565 100.806 36.3565 100.052Z" fill="#A49686"/>
<path d="M80.8536 100.052C80.8536 99.2978 80.2423 98.6864 79.4883 98.6864C78.7343 98.6864 78.123 99.2978 78.123 100.052C78.123 100.806 78.7343 101.418 79.4883 101.418C80.2423 101.418 80.8536 100.806 80.8536 100.052Z" fill="#A49686"/>
<path d="M30.1416 100.052C30.1416 99.2978 29.5304 98.6864 28.7764 98.6864C28.0224 98.6864 27.4111 99.2978 27.4111 100.052C27.4111 100.806 28.0224 101.418 28.7764 101.418C29.5304 101.418 30.1416 100.806 30.1416 100.052Z" fill="#A49686"/>
<path d="M11.2485 100.052C11.2485 100.214 11.187 100.376 11.0641 100.502L2.69462 108.871C2.44551 109.12 2.04434 109.12 1.79523 108.871C1.54612 108.621 1.54612 108.22 1.79523 107.971L9.715 100.049L1.79523 92.1332C1.54612 91.8841 1.54612 91.4828 1.79523 91.2336C2.04434 90.9844 2.44551 90.9844 2.69462 91.2336L11.0608 99.6023C11.1838 99.7285 11.2485 99.8903 11.2485 100.052Z" fill="#A49686"/>
<path d="M5.5608 100.052C5.5608 100.214 5.49933 100.376 5.3764 100.502L1.08329 104.793C0.834178 105.042 0.433013 105.042 0.183903 104.793C-0.0652073 104.544 -0.0652073 104.143 0.183903 103.893L4.02732 100.049L0.183903 96.2075C-0.0652077 95.9583 -0.0652077 95.5571 0.183903 95.3079C0.433013 95.0587 0.834178 95.0587 1.08329 95.3079L5.37316 99.6022C5.49933 99.7285 5.5608 99.8903 5.5608 100.052Z" fill="#A49686"/>
<path d="M74.9204 100.052C74.9204 105.537 70.459 110 64.9754 110C64.4092 110 63.8301 109.948 63.2575 109.848C63.0051 109.803 62.8013 109.612 62.7463 109.359C62.6913 109.107 62.7916 108.848 63.0019 108.702C65.8327 106.728 67.5215 103.495 67.5215 100.052C67.5215 96.6088 65.8327 93.3759 63.0019 91.4018C62.7916 91.2562 62.6913 90.9941 62.7463 90.7449C62.8013 90.4925 63.0051 90.3016 63.2575 90.2562C63.8333 90.1559 64.4092 90.1041 64.9754 90.1041C70.459 90.1041 74.9204 94.5668 74.9204 100.052ZM64.9915 108.731C69.7699 108.725 73.6522 104.835 73.6522 100.055C73.6522 95.2755 69.7667 91.3857 64.9915 91.3792C67.3953 93.5992 68.7929 96.7415 68.7929 100.055C68.7929 103.366 67.3953 106.508 64.9915 108.731Z" fill="#A49686"/>
<path d="M68.9318 100.052C68.9318 100.402 68.6471 100.686 68.2977 100.686L54.1146 100.686C53.7652 100.686 53.4805 100.402 53.4805 100.052C53.4805 99.7026 53.7652 99.4178 54.1146 99.4178L68.2977 99.4178C68.6471 99.4178 68.9318 99.7026 68.9318 100.052Z" fill="#A49686"/>
<path d="M24.9296 100.052C24.9296 100.402 24.6449 100.686 24.2955 100.686L10.1868 100.686C9.83743 100.686 9.55273 100.402 9.55273 100.052C9.55273 99.7026 9.83743 99.4178 10.1868 99.4178L24.2955 99.4178C24.6449 99.4178 24.9296 99.7026 24.9296 100.052Z" fill="#A49686"/>
<path d="M54.9916 100.052C54.9916 102.217 54.1505 104.249 52.6202 105.78C49.4627 108.939 44.3219 108.939 41.1644 105.78C39.6341 104.249 38.793 102.214 38.793 100.052C38.793 97.8903 39.6341 95.8548 41.1644 94.3241C44.3219 91.1656 49.4594 91.1656 52.6202 94.3241C54.1472 95.8548 54.9916 97.8871 54.9916 100.052ZM40.0612 100.052C40.0612 101.877 40.7729 103.592 42.0605 104.884C44.7231 107.547 49.0583 107.547 51.7208 104.884C53.0117 103.592 53.7202 101.877 53.7202 100.052C53.7202 98.2269 53.0084 96.5117 51.7208 95.2205C49.0583 92.5572 44.7231 92.5572 42.0605 95.2205C40.7697 96.5117 40.0612 98.2269 40.0612 100.052Z" fill="#A49686"/>
<path d="M54.7493 92.8257C54.7493 92.9875 54.6878 93.1494 54.5649 93.2756L40.1165 107.728C39.8674 107.977 39.4662 107.977 39.2171 107.728C38.968 107.479 38.968 107.078 39.2171 106.829L53.6655 92.3759C53.9146 92.1267 54.3158 92.1267 54.5649 92.3759C54.6878 92.5021 54.7493 92.6639 54.7493 92.8257Z" fill="#A49686"/>
<path d="M54.7491 107.278C54.7491 107.44 54.6876 107.602 54.5647 107.728C54.3155 107.977 53.9144 107.977 53.6653 107.728L39.2169 93.2756C38.9678 93.0264 38.971 92.6251 39.2169 92.3759C39.466 92.1267 39.8671 92.1267 40.1163 92.3759L54.5647 106.829C54.6876 106.955 54.7491 107.117 54.7491 107.278Z" fill="#A49686"/>
<path d="M101.022 34.0346C101.556 34.5686 101.556 35.4326 101.022 35.9666C100.488 36.5006 99.6246 36.5006 99.0908 35.9666C98.557 35.4326 98.557 34.5686 99.0908 34.0346C99.6246 33.5039 100.488 33.5039 101.022 34.0346Z" fill="#A49686"/>
<path d="M101.022 78.4896C101.556 79.0235 101.556 79.8876 101.022 80.4215C100.488 80.9555 99.6246 80.9555 99.0908 80.4215C98.557 79.8876 98.557 79.0235 99.0908 78.4896C99.6246 77.9556 100.488 77.9556 101.022 78.4896Z" fill="#A49686"/>
<path d="M101.022 27.8212C101.556 28.3551 101.556 29.2192 101.022 29.7532C100.488 30.2871 99.6246 30.2871 99.0908 29.7532C98.557 29.2192 98.557 28.3551 99.0908 27.8212C99.6246 27.2872 100.488 27.2872 101.022 27.8212Z" fill="#A49686"/>
<path d="M109.058 2.24588C109.058 2.40769 108.996 2.5695 108.873 2.69571L100.507 11.0644C100.258 11.3136 99.8569 11.3136 99.6077 11.0644L91.2415 2.69571C90.9924 2.44653 90.9924 2.04525 91.2415 1.79606C91.4906 1.54688 91.8918 1.54688 92.1409 1.79606L100.061 9.71815L107.98 1.79606C108.23 1.54688 108.631 1.54688 108.88 1.79606C108.996 1.91904 109.058 2.08408 109.058 2.24588Z" fill="#A49686"/>
<path d="M104.982 0.634265C104.982 0.796073 104.92 0.957885 104.797 1.0841L100.507 5.37846C100.388 5.4982 100.226 5.56293 100.058 5.56293C99.8893 5.56293 99.7276 5.49497 99.6079 5.37846L95.3148 1.0841C95.0657 0.834912 95.0657 0.43363 95.3148 0.184446C95.5639 -0.0647373 95.965 -0.0647374 96.2141 0.184446L100.058 4.02899L103.901 0.184446C104.15 -0.0647377 104.551 -0.0647377 104.8 0.184446C104.92 0.310656 104.982 0.472458 104.982 0.634265Z" fill="#A49686"/>
<path d="M109.999 64.9398C109.999 70.4251 105.538 74.8878 100.054 74.8878C94.5707 74.8878 90.1094 70.4251 90.1094 64.9398C90.1094 64.3735 90.1611 63.7942 90.2614 63.2214C90.3067 62.969 90.4976 62.7651 90.7499 62.7101C91.0023 62.6551 91.2611 62.7554 91.4067 62.9658C93.3802 65.7974 96.6121 67.4867 100.054 67.4867C103.497 67.4867 106.729 65.7974 108.702 62.9658C108.848 62.7554 109.11 62.6519 109.359 62.7101C109.611 62.7651 109.802 62.9658 109.847 63.2214C109.948 63.7942 109.999 64.3735 109.999 64.9398ZM91.3808 64.9528C91.3873 69.7326 95.276 73.6159 100.058 73.6159C104.836 73.6159 108.725 69.7293 108.731 64.9528C106.512 67.3572 103.37 68.7553 100.058 68.7553C96.7415 68.7553 93.6002 67.3572 91.3808 64.9528Z" fill="#A49686"/>
<path d="M100.692 54.0728L100.692 68.2601C100.692 68.6096 100.407 68.8944 100.058 68.8944C99.7085 68.8944 99.4238 68.6096 99.4238 68.2601L99.4238 54.0728C99.4238 53.7233 99.7085 53.4386 100.058 53.4386C100.407 53.4386 100.692 53.7233 100.692 54.0728Z" fill="#A49686"/>
<path d="M100.692 10.1906L100.692 24.3035C100.692 24.653 100.407 24.9377 100.058 24.9377C99.7085 24.9377 99.4238 24.653 99.4238 24.3035L99.4238 10.1906C99.4238 9.8411 99.7085 9.55632 100.058 9.55632C100.407 9.55308 100.692 9.83786 100.692 10.1906Z" fill="#A49686"/>
<path d="M108.156 46.8465C108.156 49.0115 107.315 51.0438 105.784 52.5745C102.627 55.733 97.4892 55.733 94.3284 52.5745C92.7982 51.0438 91.957 49.0083 91.957 46.8465C91.957 44.6815 92.7982 42.6492 94.3284 41.1185C97.486 37.96 102.627 37.96 105.784 41.1185C107.315 42.6492 108.156 44.6815 108.156 46.8465ZM93.2252 46.8465C93.2252 48.6717 93.937 50.3869 95.2246 51.6781C97.8872 54.3414 102.222 54.3414 104.885 51.6781C106.176 50.3869 106.884 48.6717 106.884 46.8465C106.884 45.0213 106.173 43.3062 104.885 42.0149C102.222 39.3516 97.8872 39.3516 95.2246 42.0149C93.937 43.3062 93.2252 45.0213 93.2252 46.8465Z" fill="#A49686"/>
<path d="M107.916 39.6202C107.916 39.782 107.855 39.9438 107.732 40.07L93.2835 54.5226C93.0344 54.7718 92.6332 54.7718 92.3841 54.5226C92.135 54.2735 92.135 53.8722 92.3841 53.623L106.832 39.1703C107.082 38.9212 107.483 38.9212 107.732 39.1703C107.852 39.2966 107.916 39.4584 107.916 39.6202Z" fill="#A49686"/>
<path d="M107.916 54.0728C107.916 54.2346 107.855 54.3964 107.732 54.5226C107.483 54.7718 107.082 54.7718 106.832 54.5226L92.3841 40.07C92.135 39.8208 92.135 39.4195 92.3841 39.1703C92.6332 38.9212 93.0344 38.9212 93.2835 39.1703L107.732 53.623C107.852 53.7492 107.916 53.911 107.916 54.0728Z" fill="#A49686"/>
<path d="M109.291 91.4504C109.291 91.6122 109.23 91.774 109.107 91.9002C108.858 92.1494 108.456 92.1494 108.207 91.9002L100.055 83.7451L83.7524 100.052L91.9051 108.207C92.1542 108.456 92.1542 108.858 91.9051 109.107C91.656 109.356 91.2548 109.356 91.0057 109.107L82.4066 100.505C82.1574 100.256 82.1574 99.8547 82.4066 99.6055L99.6081 82.3989C99.7278 82.2791 99.8896 82.2144 100.058 82.2144C100.226 82.2144 100.388 82.2824 100.507 82.3989L109.107 91.0005C109.23 91.1235 109.291 91.2853 109.291 91.4504Z" fill="#A49686"/>
<path d="M105.797 94.9454C105.797 95.1072 105.736 95.269 105.613 95.3952C105.364 95.6444 104.963 95.6444 104.714 95.3952L100.058 90.7384L90.7439 100.055L95.3994 104.712C95.6485 104.961 95.6485 105.363 95.3994 105.612C95.1503 105.861 94.7491 105.861 94.5 105.612L89.3948 100.505C89.1457 100.256 89.1457 99.8546 89.3948 99.6055L99.6051 89.3922C99.8542 89.143 100.255 89.143 100.505 89.3922L105.61 94.4988C105.736 94.6218 105.797 94.7836 105.797 94.9454Z" fill="#A49686"/>
<path d="M102.879 97.8612C102.879 98.023 102.817 98.1848 102.695 98.311C102.445 98.5602 102.044 98.5602 101.795 98.311L100.055 96.57L96.5735 100.052L98.3141 101.793C98.5632 102.042 98.5632 102.444 98.3141 102.693C98.065 102.942 97.6638 102.942 97.4147 102.693L95.2244 100.502C95.1047 100.382 95.04 100.22 95.04 100.052C95.04 99.8838 95.108 99.722 95.2244 99.6022L99.6049 95.2237C99.7246 95.104 99.8864 95.0393 100.055 95.0393C100.223 95.0393 100.385 95.1072 100.504 95.227L102.695 97.4178C102.817 97.5376 102.879 97.6994 102.879 97.8612Z" fill="#A49686"/>
</g>
<defs>
<clipPath id="clip0_281_2151">
<rect width="110" height="110" fill="white" transform="translate(0 110) rotate(-90)"/>
</clipPath>
</defs>
</svg>
