<svg width="139" height="36" viewBox="0 0 139 36" fill="none" xmlns="http://www.w3.org/2000/svg">
<g clip-path="url(#clip0_132_426)">
<path d="M60.0548 19.6629C60.9747 19.6629 61.7205 18.9184 61.7205 18C61.7205 17.0817 60.9747 16.3372 60.0548 16.3372C59.1349 16.3372 58.3892 17.0817 58.3892 18C58.3892 18.9184 59.1349 19.6629 60.0548 19.6629Z" fill="#3F576E"/>
<path d="M67.6329 19.6629C68.5529 19.6629 69.2986 18.9184 69.2986 18C69.2986 17.0817 68.5529 16.3372 67.6329 16.3372C66.713 16.3372 65.9673 17.0817 65.9673 18C65.9673 18.9184 66.713 19.6629 67.6329 19.6629Z" fill="#3F576E"/>
<path d="M75.63 19.6629C76.5499 19.6629 77.2957 18.9184 77.2957 18C77.2957 17.0817 76.5499 16.3372 75.63 16.3372C74.7101 16.3372 73.9644 17.0817 73.9644 18C73.9644 18.9184 74.7101 19.6629 75.63 19.6629Z" fill="#3F576E"/>
<path d="M4.56676 22.5591C2.04853 22.5591 0 20.514 0 18C0 15.486 2.04853 13.4409 4.56676 13.4409C7.08499 13.4409 9.13352 15.486 9.13352 18C9.13352 20.514 7.08499 22.5591 4.56676 22.5591ZM4.56676 14.9856C2.9011 14.9856 1.54725 16.3372 1.54725 18C1.54725 19.6629 2.9011 21.0145 4.56676 21.0145C6.23242 21.0145 7.58627 19.6629 7.58627 18C7.58627 16.3372 6.23242 14.9856 4.56676 14.9856Z" fill="#3F576E"/>
<path d="M53.2458 18.7724H4.56659C4.14031 18.7724 3.79297 18.4257 3.79297 18.0001C3.79297 17.5745 4.14031 17.2278 4.56659 17.2278H53.2458C53.6721 17.2278 54.0194 17.5745 54.0194 18.0001C54.0194 18.4257 53.676 18.7724 53.2458 18.7724Z" fill="#3F576E"/>
<path d="M9.90696 36C10.1043 36 10.3017 35.9252 10.4556 35.7754L27.7122 18.5477C28.0161 18.2443 28.0161 17.7557 27.7122 17.4523L10.4556 0.224632C10.1517 -0.0787835 9.66224 -0.0787835 9.35831 0.224632C9.05439 0.528047 9.05439 1.01666 9.35831 1.32008L26.0663 18L9.35831 34.68C9.05439 34.9834 9.05439 35.472 9.35831 35.7754C9.51225 35.9252 9.7096 36 9.90696 36Z" fill="#3F576E"/>
<path d="M18.551 36C18.7484 36 18.9457 35.9252 19.0996 35.7754L36.3562 18.5477C36.6602 18.2443 36.6602 17.7557 36.3562 17.4523L19.0996 0.224632C18.7957 -0.0787835 18.3063 -0.0787835 18.0024 0.224632C17.6984 0.528047 17.6984 1.01666 18.0024 1.32008L34.7103 18L18.0024 34.68C17.6984 34.9834 17.6984 35.472 18.0024 35.7754C18.1563 35.9252 18.3536 36 18.551 36Z" fill="#3F576E"/>
<path d="M123.429 18.7724H83.2595C82.699 18.7724 82.2451 18.4257 82.2451 18.0001C82.2451 17.5745 82.699 17.2278 83.2595 17.2278H123.429C123.989 17.2278 124.443 17.5745 124.443 18.0001C124.443 18.4257 123.985 18.7724 123.429 18.7724Z" fill="#3F576E"/>
<path d="M123.666 27.1655C123.532 27.1655 123.397 27.13 123.279 27.063C123.038 26.9251 122.892 26.669 122.892 26.3932V9.60681C122.892 9.33098 123.038 9.07485 123.279 8.93693C123.52 8.79902 123.816 8.79902 124.053 8.93693L138.609 17.3301C138.85 17.468 138.996 17.7241 138.996 18C138.996 18.2758 138.85 18.5319 138.609 18.6699L124.053 27.063C123.934 27.13 123.8 27.1655 123.666 27.1655ZM124.439 10.9466V25.0495L136.675 17.996L124.439 10.9466Z" fill="#3F576E"/>
<path d="M123.666 27.1654C123.397 27.1654 123.137 27.0275 122.995 26.7792C122.781 26.4088 122.908 25.936 123.279 25.7232L136.675 17.9999L123.279 10.2766C122.908 10.0638 122.781 9.59096 122.995 9.22055C123.208 8.85015 123.681 8.72406 124.052 8.93684L138.609 17.33C138.85 17.4679 138.996 17.7241 138.996 17.9999C138.996 18.2757 138.85 18.5318 138.609 18.6698L124.052 27.0629C123.93 27.1299 123.796 27.1654 123.666 27.1654Z" fill="#3F576E"/>
</g>
<defs>
<clipPath id="clip0_132_426">
<rect width="139" height="36" fill="white"/>
</clipPath>
</defs>
</svg>
