<svg width="57" height="19" viewBox="0 0 57 19" fill="none" xmlns="http://www.w3.org/2000/svg">
<path d="M41.1837 9.93879H1.0144C0.453916 9.93879 0 9.59203 0 9.16646C0 8.74089 0.453916 8.39413 1.0144 8.39413H41.1837C41.7442 8.39413 42.1981 8.74089 42.1981 9.16646C42.1981 9.59203 41.7403 9.93879 41.1837 9.93879Z" fill="#D6C19C"/>
<path d="M41.4206 18.332C41.2864 18.332 41.1522 18.2965 41.0338 18.2295C40.793 18.0916 40.647 17.8355 40.647 17.5597V0.773314C40.647 0.497482 40.793 0.241353 41.0338 0.103437C41.2745 -0.034479 41.5706 -0.034479 41.8074 0.103437L56.3642 8.49661C56.605 8.63452 56.751 8.89065 56.751 9.16648C56.751 9.44232 56.605 9.69845 56.3642 9.83636L41.8074 18.2295C41.689 18.2965 41.5548 18.332 41.4206 18.332ZM42.1942 2.11307V16.216L54.4301 9.16254L42.1942 2.11307Z" fill="#D6C19C"/>
<path d="M41.4205 18.332C41.1521 18.332 40.8916 18.1941 40.7495 17.9458C40.5364 17.5754 40.6627 17.1026 41.0337 16.8898L54.4301 9.16648L41.0337 1.44319C40.6627 1.23041 40.5364 0.757551 40.7495 0.387148C40.9627 0.0167457 41.4363 -0.109349 41.8073 0.103436L56.3641 8.4966C56.6049 8.63452 56.7509 8.89065 56.7509 9.16648C56.7509 9.44231 56.6049 9.69844 56.3641 9.83636L41.8073 18.2295C41.685 18.2965 41.5508 18.332 41.4205 18.332Z" fill="#D6C19C"/>
</svg>
