<svg width="337" height="25" viewBox="0 0 337 25" fill="none" xmlns="http://www.w3.org/2000/svg">
<g clip-path="url(#clip0_132_875)">
<path d="M225.633 13.4068C225.129 13.908 224.314 13.908 223.81 13.4068C223.306 12.9055 223.306 12.0943 223.81 11.593C224.314 11.0918 225.129 11.0918 225.633 11.593C226.137 12.0943 226.137 12.9055 225.633 13.4068Z" fill="#417294"/>
<path d="M231.5 13.4068C230.996 13.908 230.181 13.908 229.677 13.4068C229.173 12.9055 229.173 12.0943 229.677 11.593C230.181 11.0918 230.996 11.0918 231.5 11.593C232.004 12.0943 232.004 12.9055 231.5 13.4068Z" fill="#417294"/>
<path d="M287.211 14.139C287.923 14.139 288.5 14.713 288.5 15.4211C288.5 16.1291 287.923 16.7031 287.211 16.7031C286.499 16.7031 285.922 16.1291 285.922 15.4211C285.922 14.713 286.499 14.139 287.211 14.139Z" fill="#417294"/>
<path d="M288.121 10.5571C287.617 11.0584 286.802 11.0584 286.298 10.5571C285.794 10.0559 285.794 9.24472 286.298 8.74344C286.802 8.24217 287.617 8.24217 288.121 8.74344C288.625 9.24472 288.625 10.0559 288.121 10.5571Z" fill="#417294"/>
<path d="M334.801 11.593C335.305 11.0918 336.12 11.0918 336.624 11.593C337.128 12.0943 337.128 12.9055 336.624 13.4068C336.12 13.908 335.305 13.908 334.801 13.4068C334.297 12.9055 334.297 12.0943 334.801 11.593Z" fill="#417294"/>
<path d="M329.847 11.2196C330.558 11.2196 331.135 11.7936 331.135 12.5016C331.135 13.2097 330.558 13.7837 329.847 13.7837C329.135 13.7837 328.558 13.2097 328.558 12.5016C328.558 11.7936 329.135 11.2196 329.847 11.2196Z" fill="#417294"/>
<path d="M323.069 11.593C323.573 11.0918 324.389 11.0918 324.893 11.593C325.397 12.0943 325.397 12.9055 324.893 13.4068C324.389 13.908 323.573 13.908 323.069 13.4068C322.565 12.9055 322.565 12.0943 323.069 11.593Z" fill="#417294"/>
<path d="M222.142 -0.000217438C221.989 -0.000217438 221.836 0.0575066 221.717 0.172951L209.75 12.076C209.515 12.3099 209.515 12.6866 209.75 12.9206L221.717 24.8236C221.952 25.0575 222.331 25.0575 222.566 24.8236C222.801 24.5896 222.801 24.2129 222.566 23.979L211.024 12.4983L222.566 1.01752C222.801 0.783596 222.801 0.406879 222.566 0.172951C222.447 0.0575066 222.294 -0.000217438 222.142 -0.000217438Z" fill="#417294"/>
<path d="M296.988 3.47246C296.835 3.47246 296.683 3.53018 296.563 3.64563L288.085 12.0792C287.849 12.3131 287.849 12.6899 288.085 12.9238L296.563 21.3543C296.799 21.5883 297.177 21.5883 297.413 21.3543C297.648 21.1204 297.648 20.7437 297.413 20.5098L289.358 12.4985L297.413 4.48716C297.648 4.25323 297.648 3.87652 297.413 3.64259C297.293 3.53018 297.141 3.47246 296.988 3.47246Z" fill="#417294"/>
<path d="M306.524 3.47246C306.371 3.47246 306.218 3.53018 306.099 3.64563L297.62 12.0792C297.385 12.3131 297.385 12.6899 297.62 12.9238L306.099 21.3543C306.334 21.5883 306.713 21.5883 306.948 21.3543C307.183 21.1204 307.183 20.7437 306.948 20.5098L298.894 12.4985L306.948 4.48716C307.183 4.25323 307.183 3.87652 306.948 3.64259C306.829 3.53018 306.676 3.47246 306.524 3.47246Z" fill="#417294"/>
<path d="M320.342 11.9028H298.317C297.987 11.9028 297.718 12.1702 297.718 12.4983C297.718 12.8264 297.987 13.0938 298.317 13.0938H320.342C320.672 13.0938 320.94 12.8264 320.94 12.4983C320.94 12.1702 320.675 11.9028 320.342 11.9028Z" fill="#417294"/>
<path d="M288.488 11.9028H263.424C263.094 11.9028 262.826 12.1702 262.826 12.4983C262.826 12.8264 263.094 13.0938 263.424 13.0938H288.488C288.818 13.0938 289.087 12.8264 289.087 12.4983C289.087 12.1702 288.821 11.9028 288.488 11.9028Z" fill="#417294"/>
<path d="M255.66 11.9028H234.46C234.13 11.9028 233.861 12.1702 233.861 12.4983C233.861 12.8264 234.13 13.0938 234.46 13.0938H255.66C255.99 13.0938 256.259 12.8264 256.259 12.4983C256.259 12.1702 255.99 11.9028 255.66 11.9028Z" fill="#417294"/>
<path d="M221.436 11.9028H216.442C216.113 11.9028 215.844 12.1702 215.844 12.4983C215.844 12.8264 216.113 13.0938 216.442 13.0938H221.436C221.766 13.0938 222.035 12.8264 222.035 12.4983C222.035 12.1702 221.769 11.9028 221.436 11.9028Z" fill="#417294"/>
<path d="M248.583 7.45512C248.253 7.45512 247.984 7.72246 247.984 8.05057V16.949C247.984 17.2771 248.253 17.5444 248.583 17.5444C248.913 17.5444 249.182 17.2771 249.182 16.949V8.05361C249.182 7.72246 248.913 7.45512 248.583 7.45512Z" fill="#417294"/>
<path d="M250.843 7.45512C250.513 7.45512 250.245 7.72246 250.245 8.05057V16.949C250.245 17.2771 250.513 17.5444 250.843 17.5444C251.173 17.5444 251.442 17.2771 251.442 16.949V8.05361C251.442 7.72246 251.173 7.45512 250.843 7.45512Z" fill="#417294"/>
<path d="M267.456 0.173374C260.62 0.173374 255.062 5.7026 255.062 12.5017C255.062 19.3009 260.62 24.8301 267.456 24.8301C268.162 24.8301 268.882 24.7663 269.6 24.6417C269.838 24.5992 270.031 24.4199 270.083 24.183C270.135 23.946 270.04 23.703 269.841 23.5663C266.201 21.0416 264.029 16.9038 264.029 12.5017C264.029 8.09961 266.204 3.96181 269.841 1.4372C270.04 1.30049 270.138 1.05441 270.083 0.820478C270.031 0.583511 269.838 0.404266 269.6 0.361734C268.882 0.234137 268.162 0.173374 267.456 0.173374ZM267.456 23.6361C261.28 23.6361 256.259 18.6416 256.259 12.5017C256.259 6.36186 261.28 1.36428 267.456 1.36428C267.624 1.36428 267.792 1.36732 267.963 1.37644C264.722 4.15016 262.826 8.20898 262.826 12.5017C262.826 16.7945 264.722 20.8503 267.96 23.627C267.792 23.6331 267.624 23.6361 267.456 23.6361Z" fill="#417294"/>
<path d="M111.367 13.4068C111.871 13.908 112.687 13.908 113.191 13.4068C113.695 12.9055 113.695 12.0943 113.191 11.593C112.687 11.0918 111.871 11.0918 111.367 11.593C110.863 12.0943 110.863 12.9055 111.367 13.4068Z" fill="#417294"/>
<path d="M105.5 13.4068C106.004 13.908 106.819 13.908 107.323 13.4068C107.827 12.9055 107.827 12.0943 107.323 11.593C106.819 11.0918 106.004 11.0918 105.5 11.593C104.999 12.0943 104.999 12.9055 105.5 13.4068Z" fill="#417294"/>
<path d="M48.8785 16.3262C49.3824 16.8275 50.1979 16.8275 50.7019 16.3262C51.2059 15.8249 51.2059 15.0138 50.7019 14.5125C50.1979 14.0112 49.3824 14.0112 48.8785 14.5125C48.3745 15.0138 48.3745 15.8249 48.8785 16.3262Z" fill="#417294"/>
<path d="M48.8785 10.5571C49.3824 11.0584 50.1979 11.0584 50.7019 10.5571C51.2059 10.0559 51.2059 9.24472 50.7019 8.74344C50.1979 8.24217 49.3824 8.24217 48.8785 8.74344C48.3745 9.24472 48.3745 10.0559 48.8785 10.5571Z" fill="#417294"/>
<path d="M1.28893 11.2196C2.00079 11.2196 2.57786 11.7936 2.57786 12.5016C2.57786 13.2097 2.00079 13.7837 1.28893 13.7837C0.577073 13.7837 0 13.2097 0 12.5016C0 11.7936 0.577073 11.2196 1.28893 11.2196Z" fill="#417294"/>
<path d="M8.06665 11.593C7.56268 11.0918 6.74717 11.0918 6.24321 11.593C5.73924 12.0943 5.73924 12.9055 6.24321 13.4068C6.74717 13.908 7.56268 13.908 8.06665 13.4068C8.56756 12.9055 8.56756 12.0943 8.06665 11.593Z" fill="#417294"/>
<path d="M13.0209 11.2196C13.7327 11.2196 14.3098 11.7936 14.3098 12.5016C14.3098 13.2097 13.7327 13.7837 13.0209 13.7837C12.309 13.7837 11.7319 13.2097 11.7319 12.5016C11.7319 11.7936 12.309 11.2196 13.0209 11.2196Z" fill="#417294"/>
<path d="M114.861 0.000162125C114.708 0.000162125 114.556 0.0578861 114.437 0.17333C114.201 0.407259 114.201 0.783976 114.437 1.0179L125.979 12.4986L114.437 23.9824C114.201 24.2163 114.201 24.5931 114.437 24.827C114.672 25.0609 115.051 25.0609 115.286 24.827L127.253 12.924C127.488 12.69 127.488 12.3133 127.253 12.0794L115.286 0.176369C115.167 0.0578861 115.014 0.000162125 114.861 0.000162125Z" fill="#417294"/>
<path d="M40.0116 3.47235C39.8589 3.47235 39.7062 3.53007 39.587 3.64552C39.3518 3.87945 39.3518 4.25616 39.587 4.49009L47.6413 12.5014L39.587 20.5127C39.3518 20.7466 39.3518 21.1233 39.587 21.3573C39.8222 21.5912 40.201 21.5912 40.4361 21.3573L48.915 12.9237C49.028 12.8113 49.0891 12.6594 49.0891 12.5014C49.0891 12.3434 49.0249 12.1915 48.915 12.0791L40.4361 3.64552C40.317 3.53007 40.1643 3.47235 40.0116 3.47235Z" fill="#417294"/>
<path d="M30.4794 3.47235C30.3266 3.47235 30.1739 3.53007 30.0548 3.64552C29.8196 3.87945 29.8196 4.25616 30.0548 4.49009L38.1091 12.5014L30.0548 20.5127C29.8196 20.7466 29.8196 21.1233 30.0548 21.3573C30.29 21.5912 30.6687 21.5912 30.9039 21.3573L39.3827 12.9237C39.4958 12.8113 39.5568 12.6594 39.5568 12.5014C39.5568 12.3434 39.4927 12.1915 39.3827 12.0791L30.9039 3.64552C30.7848 3.53007 30.6321 3.47235 30.4794 3.47235Z" fill="#417294"/>
<path d="M38.683 11.9028H16.6582C16.3284 11.9028 16.0596 12.1702 16.0596 12.4983C16.0596 12.8264 16.3284 13.0938 16.6582 13.0938H38.683C39.0129 13.0938 39.2817 12.8264 39.2817 12.4983C39.2817 12.1702 39.0129 11.9028 38.683 11.9028Z" fill="#417294"/>
<path d="M73.5761 11.9028H48.5122C48.1824 11.9028 47.9136 12.1702 47.9136 12.4983C47.9136 12.8264 48.1824 13.0938 48.5122 13.0938H73.5761C73.906 13.0938 74.1747 12.8264 74.1747 12.4983C74.1747 12.1702 73.906 11.9028 73.5761 11.9028Z" fill="#417294"/>
<path d="M102.54 11.9028H81.3399C81.01 11.9028 80.7412 12.1702 80.7412 12.4983C80.7412 12.8264 81.01 13.0938 81.3399 13.0938H102.54C102.87 13.0938 103.139 12.8264 103.139 12.4983C103.139 12.1702 102.873 11.9028 102.54 11.9028Z" fill="#417294"/>
<path d="M120.558 11.9028H115.564C115.234 11.9028 114.965 12.1702 114.965 12.4983C114.965 12.8264 115.234 13.0938 115.564 13.0938H120.558C120.888 13.0938 121.156 12.8264 121.156 12.4983C121.156 12.1702 120.891 11.9028 120.558 11.9028Z" fill="#417294"/>
<path d="M88.417 7.45512C88.0871 7.45512 87.8184 7.72246 87.8184 8.05057V16.949C87.8184 17.2771 88.0871 17.5444 88.417 17.5444C88.7469 17.5444 89.0157 17.2771 89.0157 16.949V8.05361C89.0157 7.72246 88.7499 7.45512 88.417 7.45512Z" fill="#417294"/>
<path d="M86.1568 7.45512C85.8269 7.45512 85.5581 7.72246 85.5581 8.05057V16.949C85.5581 17.2771 85.8269 17.5444 86.1568 17.5444C86.4866 17.5444 86.7554 17.2771 86.7554 16.949V8.05361C86.7554 7.72246 86.4866 7.45512 86.1568 7.45512Z" fill="#417294"/>
<path d="M69.5472 0.173374C68.8416 0.173374 68.1208 0.237175 67.403 0.361734C67.1648 0.404266 66.9724 0.583511 66.9204 0.820478C66.8685 1.05745 66.9632 1.30049 67.1617 1.4372C70.8025 3.96181 72.9741 8.09961 72.9741 12.5017C72.9741 16.9038 70.7994 21.0416 67.1617 23.5663C66.9632 23.706 66.8655 23.949 66.9204 24.183C66.9724 24.4199 67.1648 24.5992 67.403 24.6417C68.1208 24.7663 68.8416 24.8301 69.5472 24.8301C76.3828 24.8301 81.9417 19.3009 81.9417 12.5017C81.9386 5.7026 76.3797 0.173374 69.5472 0.173374ZM69.0401 1.37644C69.2112 1.36732 69.3792 1.36428 69.5472 1.36428C75.72 1.36428 80.7413 6.35882 80.7413 12.5017C80.7413 18.8087 75.4481 23.9187 69.0401 23.627C72.2808 20.8533 74.1745 16.7945 74.1745 12.5017C74.1745 8.20898 72.2808 4.15016 69.0401 1.37644Z" fill="#417294"/>
</g>
<defs>
<clipPath id="clip0_132_875">
<rect width="337" height="25" fill="white" transform="matrix(1 0 0 -1 0 25)"/>
</clipPath>
</defs>
</svg>
