<svg width="110" height="110" viewBox="0 0 110 110" fill="none" xmlns="http://www.w3.org/2000/svg">
<g clip-path="url(#clip0_281_2203)">
<path d="M73.6435 9.94793C73.6435 10.7022 74.2548 11.3136 75.0088 11.3136C75.7628 11.3136 76.374 10.7022 76.374 9.94793C76.374 9.1937 75.7628 8.58228 75.0088 8.58228C74.2548 8.58228 73.6435 9.1937 73.6435 9.94793Z" fill="#A49686"/>
<path d="M29.1464 9.94793C29.1464 10.7022 29.7577 11.3136 30.5117 11.3136C31.2657 11.3136 31.877 10.7022 31.877 9.94793C31.877 9.1937 31.2657 8.58228 30.5117 8.58228C29.7577 8.58228 29.1464 9.1937 29.1464 9.94793Z" fill="#A49686"/>
<path d="M79.8584 9.94793C79.8584 10.7022 80.4696 11.3136 81.2236 11.3136C81.9776 11.3136 82.5889 10.7022 82.5889 9.94793C82.5889 9.1937 81.9776 8.58228 81.2236 8.58228C80.4696 8.58228 79.8584 9.1937 79.8584 9.94793Z" fill="#A49686"/>
<path d="M98.7515 9.9479C98.7515 9.7861 98.813 9.62429 98.9359 9.49808L107.305 1.12939C107.554 0.880209 107.956 0.880209 108.205 1.12939C108.454 1.37858 108.454 1.77986 108.205 2.02904L100.285 9.95114L108.205 17.8668C108.454 18.1159 108.454 18.5172 108.205 18.7664C107.956 19.0156 107.554 19.0156 107.305 18.7664L98.9392 10.3977C98.8162 10.2715 98.7515 10.1097 98.7515 9.9479Z" fill="#A49686"/>
<path d="M104.439 9.94793C104.439 9.78612 104.501 9.62432 104.624 9.4981L108.917 5.20697C109.166 4.95778 109.567 4.95778 109.816 5.20697C110.065 5.45615 110.065 5.85743 109.816 6.10662L105.973 9.95117L109.816 13.7925C110.065 14.0417 110.065 14.4429 109.816 14.6921C109.567 14.9413 109.166 14.9413 108.917 14.6921L104.627 10.3978C104.501 10.2715 104.439 10.1097 104.439 9.94793Z" fill="#A49686"/>
<path d="M35.0796 9.94793C35.0796 4.46265 39.541 3.37783e-07 45.0246 9.8085e-08C45.5908 7.33373e-08 46.1699 0.0517785 46.7425 0.152099C46.9949 0.197405 47.1987 0.388338 47.2537 0.640758C47.3087 0.893178 47.2084 1.15207 46.9981 1.2977C44.1673 3.27175 42.4785 6.50466 42.4785 9.94793C42.4785 13.3912 44.1673 16.6241 46.9981 18.5982C47.2084 18.7438 47.3087 19.0059 47.2537 19.2551C47.1987 19.5075 46.9949 19.6984 46.7425 19.7438C46.1667 19.8441 45.5908 19.8959 45.0246 19.8959C39.541 19.8959 35.0796 15.4332 35.0796 9.94793ZM45.0085 1.26857C40.2301 1.27504 36.3478 5.1649 36.3478 9.94469C36.3478 14.7245 40.2333 18.6143 45.0085 18.6208C42.6047 16.4008 41.2071 13.2585 41.2071 9.94469C41.2071 6.63411 42.6047 3.49181 45.0085 1.26857Z" fill="#A49686"/>
<path d="M41.0682 9.94795C41.0682 9.59844 41.3529 9.31366 41.7023 9.31366L55.8854 9.31366C56.2348 9.31366 56.5195 9.59844 56.5195 9.94794C56.5195 10.2974 56.2348 10.5822 55.8854 10.5822L41.7023 10.5822C41.3529 10.5822 41.0682 10.2974 41.0682 9.94795Z" fill="#A49686"/>
<path d="M85.0704 9.94795C85.0704 9.59844 85.3551 9.31366 85.7045 9.31366L99.8132 9.31366C100.163 9.31366 100.447 9.59844 100.447 9.94794C100.447 10.2974 100.163 10.5822 99.8132 10.5822L85.7045 10.5822C85.3551 10.5822 85.0704 10.2974 85.0704 9.94795Z" fill="#A49686"/>
<path d="M55.0084 9.94792C55.0084 7.78294 55.8495 5.75064 57.3798 4.21994C60.5373 1.06145 65.6781 1.06145 68.8356 4.21994C70.3659 5.75064 71.207 7.78617 71.207 9.94792C71.207 12.1097 70.3659 14.1452 68.8356 15.6759C65.6781 18.8344 60.5406 18.8344 57.3798 15.6759C55.8528 14.1452 55.0084 12.1129 55.0084 9.94792ZM69.9388 9.94792C69.9388 8.12273 69.2271 6.40757 67.9395 5.11635C65.2769 2.453 60.9417 2.453 58.2792 5.11635C56.9883 6.40758 56.2798 8.12274 56.2798 9.94792C56.2798 11.7731 56.9916 13.4883 58.2792 14.7795C60.9417 17.4428 65.2769 17.4428 67.9395 14.7795C69.2303 13.4883 69.9388 11.7731 69.9388 9.94792Z" fill="#A49686"/>
<path d="M55.2507 17.1743C55.2507 17.0125 55.3122 16.8506 55.4351 16.7244L69.8835 2.27179C70.1326 2.0226 70.5338 2.0226 70.7829 2.27179C71.032 2.52097 71.032 2.92225 70.7829 3.17144L56.3345 17.6241C56.0854 17.8733 55.6842 17.8733 55.4351 17.6241C55.3122 17.4979 55.2507 17.3361 55.2507 17.1743Z" fill="#A49686"/>
<path d="M55.2509 2.72161C55.2509 2.55981 55.3124 2.398 55.4353 2.27179C55.6845 2.0226 56.0856 2.0226 56.3347 2.27179L70.7831 16.7244C71.0322 16.9736 71.029 17.3749 70.7831 17.6241C70.534 17.8733 70.1329 17.8733 69.8837 17.6241L55.4353 3.17144C55.3124 3.04523 55.2509 2.88342 55.2509 2.72161Z" fill="#A49686"/>
<path d="M8.9778 75.9654C8.44399 75.4314 8.44399 74.5674 8.9778 74.0334C9.51161 73.4994 10.3754 73.4994 10.9092 74.0334C11.443 74.5674 11.443 75.4314 10.9092 75.9654C10.3754 76.4961 9.51161 76.4961 8.9778 75.9654Z" fill="#A49686"/>
<path d="M8.9778 31.5104C8.44399 30.9765 8.44399 30.1124 8.9778 29.5785C9.51161 29.0445 10.3754 29.0445 10.9092 29.5785C11.443 30.1124 11.443 30.9765 10.9092 31.5104C10.3754 32.0444 9.51161 32.0444 8.9778 31.5104Z" fill="#A49686"/>
<path d="M8.9778 82.1788C8.44399 81.6449 8.44399 80.7808 8.9778 80.2468C9.51161 79.7129 10.3754 79.7129 10.9092 80.2468C11.443 80.7808 11.443 81.6449 10.9092 82.1788C10.3754 82.7128 9.51161 82.7128 8.9778 82.1788Z" fill="#A49686"/>
<path d="M0.942238 107.754C0.942238 107.592 1.00371 107.43 1.12665 107.304L9.49287 98.9356C9.74198 98.6864 10.1431 98.6864 10.3923 98.9356L18.7585 107.304C19.0076 107.553 19.0076 107.955 18.7585 108.204C18.5094 108.453 18.1082 108.453 17.8591 108.204L9.93932 100.282L2.01956 108.204C1.77045 108.453 1.36929 108.453 1.12018 108.204C1.00371 108.081 0.942238 107.916 0.942238 107.754Z" fill="#A49686"/>
<path d="M5.01846 109.366C5.01846 109.204 5.07993 109.042 5.20287 108.916L9.49274 104.622C9.61244 104.502 9.7742 104.437 9.94243 104.437C10.1107 104.437 10.2724 104.505 10.3921 104.622L14.6852 108.916C14.9343 109.165 14.9343 109.566 14.6852 109.816C14.4361 110.065 14.035 110.065 13.7859 109.816L9.94243 105.971L6.09902 109.816C5.84991 110.065 5.44874 110.065 5.19963 109.816C5.07993 109.689 5.01846 109.528 5.01846 109.366Z" fill="#A49686"/>
<path d="M0.000618416 45.0602C0.000618176 39.5749 4.46196 35.1122 9.94563 35.1122C15.4293 35.1122 19.8906 39.5749 19.8906 45.0602C19.8906 45.6265 19.8389 46.2058 19.7386 46.7786C19.6933 47.031 19.5024 47.2349 19.2501 47.2899C18.9977 47.3449 18.7389 47.2446 18.5933 47.0342C16.6198 44.2026 13.3879 42.5133 9.94563 42.5133C6.50338 42.5133 3.27141 44.2026 1.29794 47.0342C1.15235 47.2446 0.890303 47.3481 0.641192 47.2899C0.388846 47.2349 0.197966 47.0342 0.152674 46.7786C0.052382 46.2058 0.000618441 45.6265 0.000618416 45.0602ZM18.6192 45.0472C18.6127 40.2674 14.724 36.3841 9.94239 36.3841C5.164 36.3841 1.27529 40.2707 1.26882 45.0472C3.48817 42.6428 6.62955 41.2447 9.94239 41.2447C13.2585 41.2447 16.3998 42.6428 18.6192 45.0472Z" fill="#A49686"/>
<path d="M9.30798 55.9272L9.30798 41.7399C9.30798 41.3904 9.59267 41.1056 9.94208 41.1056C10.2915 41.1056 10.5762 41.3904 10.5762 41.7399L10.5762 55.9272C10.5762 56.2767 10.2915 56.5614 9.94208 56.5614C9.59267 56.5614 9.30798 56.2767 9.30798 55.9272Z" fill="#A49686"/>
<path d="M9.30798 99.8094L9.30798 85.6965C9.30798 85.347 9.59267 85.0623 9.94208 85.0623C10.2915 85.0623 10.5762 85.347 10.5762 85.6965L10.5762 99.8094C10.5762 100.159 10.2915 100.444 9.94208 100.444C9.59267 100.447 9.30798 100.162 9.30798 99.8094Z" fill="#A49686"/>
<path d="M1.84433 63.1535C1.84433 60.9885 2.68547 58.9562 4.21572 57.4255C7.37328 54.267 12.5108 54.267 15.6716 57.4255C17.2018 58.9562 18.043 60.9917 18.043 63.1535C18.043 65.3185 17.2018 67.3508 15.6716 68.8815C12.514 72.04 7.37328 72.04 4.21572 68.8815C2.68547 67.3508 1.84433 65.3185 1.84433 63.1535ZM16.7748 63.1535C16.7748 61.3283 16.063 59.6131 14.7754 58.3219C12.1128 55.6586 7.77768 55.6586 5.11511 58.3219C3.82426 59.6131 3.11576 61.3283 3.11576 63.1535C3.11576 64.9787 3.8275 66.6938 5.11511 67.9851C7.77768 70.6484 12.1128 70.6484 14.7754 67.9851C16.063 66.6938 16.7748 64.9787 16.7748 63.1535Z" fill="#A49686"/>
<path d="M2.08371 70.3798C2.08371 70.218 2.14518 70.0562 2.26812 69.93L16.7165 55.4774C16.9656 55.2282 17.3668 55.2282 17.6159 55.4774C17.865 55.7265 17.865 56.1278 17.6159 56.377L3.1675 70.8297C2.91839 71.0788 2.51723 71.0788 2.26812 70.8297C2.14842 70.7034 2.08371 70.5416 2.08371 70.3798Z" fill="#A49686"/>
<path d="M2.08371 55.9272C2.08371 55.7654 2.14518 55.6036 2.26812 55.4774C2.51723 55.2282 2.91839 55.2282 3.1675 55.4774L17.6159 69.93C17.865 70.1792 17.865 70.5805 17.6159 70.8297C17.3668 71.0788 16.9656 71.0788 16.7165 70.8297L2.26812 56.377C2.14842 56.2508 2.08371 56.089 2.08371 55.9272Z" fill="#A49686"/>
<path d="M0.708937 18.5496C0.708937 18.3878 0.770407 18.226 0.893346 18.0998C1.14246 17.8506 1.54362 17.8506 1.79273 18.0998L9.94544 26.2549L26.2476 9.94794L18.0949 1.79284C17.8458 1.54365 17.8458 1.14237 18.0949 0.893187C18.344 0.644003 18.7452 0.644003 18.9943 0.893187L27.5934 9.49487C27.8426 9.74406 27.8426 10.1453 27.5934 10.3945L10.3919 27.6011C10.2722 27.7209 10.1104 27.7856 9.9422 27.7856C9.77397 27.7856 9.6122 27.7176 9.4925 27.6011L0.893346 18.9995C0.770408 18.8765 0.708937 18.7147 0.708937 18.5496Z" fill="#A49686"/>
<path d="M4.20271 15.0546C4.20271 14.8928 4.26417 14.731 4.38711 14.6048C4.63622 14.3556 5.03738 14.3556 5.28649 14.6048L9.94195 19.2616L19.2561 9.94471L14.6006 5.28789C14.3515 5.03871 14.3515 4.63743 14.6006 4.38824C14.8497 4.13906 15.2509 4.13906 15.5 4.38824L20.6052 9.49489C20.8543 9.74407 20.8543 10.1454 20.6052 10.3945L10.3949 20.6078C10.1458 20.857 9.7446 20.857 9.49549 20.6078L4.39035 15.5012C4.26417 15.3782 4.20271 15.2164 4.20271 15.0546Z" fill="#A49686"/>
<path d="M7.12107 12.1388C7.12107 11.977 7.18254 11.8152 7.30548 11.689C7.55459 11.4398 7.95575 11.4398 8.20486 11.689L9.9454 13.43L13.4265 9.94795L11.6859 8.2069C11.4368 7.95772 11.4368 7.55643 11.6859 7.30725C11.935 7.05807 12.3362 7.05807 12.5853 7.30725L14.7756 9.49812C14.8953 9.61786 14.96 9.77967 14.96 9.94795C14.96 10.1162 14.892 10.278 14.7756 10.3978L10.3951 14.7763C10.2754 14.896 10.1136 14.9607 9.9454 14.9607C9.77717 14.9607 9.61541 14.8928 9.49571 14.773L7.30548 12.5822C7.18254 12.4624 7.12107 12.3006 7.12107 12.1388Z" fill="#A49686"/>
</g>
<defs>
<clipPath id="clip0_281_2203">
<rect width="110" height="110" fill="white" transform="translate(110) rotate(90)"/>
</clipPath>
</defs>
</svg>
