<svg width="38" height="39" viewBox="0 0 38 39" fill="none" xmlns="http://www.w3.org/2000/svg">
<mask id="path-1-inside-1_202_2" fill="white">
<path fill-rule="evenodd" clip-rule="evenodd" d="M6.56969 0C2.44382 5.50897 0 12.3505 0 19.7628C0 26.9177 2.27705 33.5408 6.146 38.9469L38 30.5115C37.1438 26.9552 36.6956 23.2363 36.6956 19.4174C36.6956 15.5985 37.1438 11.8795 38 8.32323L6.56969 0Z"/>
</mask>
<path fill-rule="evenodd" clip-rule="evenodd" d="M6.56969 0C2.44382 5.50897 0 12.3505 0 19.7628C0 26.9177 2.27705 33.5408 6.146 38.9469L38 30.5115C37.1438 26.9552 36.6956 23.2363 36.6956 19.4174C36.6956 15.5985 37.1438 11.8795 38 8.32323L6.56969 0Z" fill="#A49686"/>
<path d="M6.56969 0L4.96887 -1.19891L5.77757 -2.2787L7.08167 -1.93336L6.56969 0ZM6.146 38.9469L6.65799 40.8803L5.32319 41.2338L4.5196 40.1109L6.146 38.9469ZM38 30.5115L39.9444 30.0434L40.4021 31.9443L38.512 32.4449L38 30.5115ZM38 8.32323L38.512 6.38987L40.4021 6.89041L39.9444 8.79139L38 8.32323ZM8.17051 1.19891C4.29485 6.37379 2 12.7974 2 19.7628H-2C-2 11.9036 0.592789 4.64415 4.96887 -1.19891L8.17051 1.19891ZM2 19.7628C2 26.4866 4.13836 32.7051 7.77241 37.783L4.5196 40.1109C0.415733 34.3765 -2 27.3488 -2 19.7628H2ZM38.512 32.4449L6.65799 40.8803L5.63402 37.0136L37.488 28.5782L38.512 32.4449ZM38.6956 19.4174C38.6956 23.0796 39.1253 26.6414 39.9444 30.0434L36.0556 30.9797C35.1622 27.2691 34.6956 23.3929 34.6956 19.4174H38.6956ZM39.9444 8.79139C39.1253 12.1934 38.6956 15.7552 38.6956 19.4174H34.6956C34.6956 15.4418 35.1622 11.5657 36.0556 7.85507L39.9444 8.79139ZM7.08167 -1.93336L38.512 6.38987L37.488 10.2566L6.05771 1.93336L7.08167 -1.93336Z" fill="white" mask="url(#path-1-inside-1_202_2)"/>
<rect x="17.6577" y="15" width="2.35389" height="9.41557" transform="rotate(45 17.6577 15)" fill="#3F576E"/>
<rect x="11" y="16.6645" width="2.35389" height="9.41557" transform="rotate(-45 11 16.6645)" fill="#3F576E"/>
</svg>
