<svg width="38" height="39" viewBox="0 0 38 39" fill="none" xmlns="http://www.w3.org/2000/svg">
<mask id="path-1-inside-1_202_3" fill="white">
<path fill-rule="evenodd" clip-rule="evenodd" d="M31.4303 0C35.5562 5.50897 38 12.3505 38 19.7628C38 26.9177 35.723 33.5408 31.854 38.9469L0 30.5115C0.856249 26.9552 1.30435 23.2363 1.30435 19.4174C1.30435 15.5985 0.856249 11.8795 0 8.32323L31.4303 0Z"/>
</mask>
<path fill-rule="evenodd" clip-rule="evenodd" d="M31.4303 0C35.5562 5.50897 38 12.3505 38 19.7628C38 26.9177 35.723 33.5408 31.854 38.9469L0 30.5115C0.856249 26.9552 1.30435 23.2363 1.30435 19.4174C1.30435 15.5985 0.856249 11.8795 0 8.32323L31.4303 0Z" fill="#A49686"/>
<path d="M31.4303 0L33.0311 -1.19891L32.2224 -2.2787L30.9183 -1.93336L31.4303 0ZM31.854 38.9469L31.342 40.8803L32.6768 41.2338L33.4804 40.1109L31.854 38.9469ZM0 30.5115L-1.94443 30.0434L-2.40213 31.9443L-0.511983 32.4449L0 30.5115ZM0 8.32323L-0.511983 6.38987L-2.40213 6.89041L-1.94443 8.79139L0 8.32323ZM29.8295 1.19891C33.7052 6.37379 36 12.7974 36 19.7628H40C40 11.9036 37.4072 4.64415 33.0311 -1.19891L29.8295 1.19891ZM36 19.7628C36 26.4866 33.8616 32.7051 30.2276 37.783L33.4804 40.1109C37.5843 34.3765 40 27.3488 40 19.7628H36ZM-0.511983 32.4449L31.342 40.8803L32.366 37.0136L0.511983 28.5782L-0.511983 32.4449ZM-0.695648 19.4174C-0.695648 23.0796 -1.12534 26.6414 -1.94443 30.0434L1.94443 30.9797C2.83784 27.2691 3.30435 23.3929 3.30435 19.4174H-0.695648ZM-1.94443 8.79139C-1.12534 12.1934 -0.695648 15.7552 -0.695648 19.4174H3.30435C3.30435 15.4418 2.83784 11.5657 1.94443 7.85507L-1.94443 8.79139ZM30.9183 -1.93336L-0.511983 6.38987L0.511983 10.2566L31.9423 1.93336L30.9183 -1.93336Z" fill="white" mask="url(#path-1-inside-1_202_3)"/>
<rect x="26.6577" y="15" width="2.35389" height="9.41557" transform="rotate(45 26.6577 15)" fill="#3F576E"/>
<rect x="20" y="16.6645" width="2.35389" height="9.41557" transform="rotate(-45 20 16.6645)" fill="#3F576E"/>
</svg>
