<svg width="45" height="40" viewBox="0 0 45 40" fill="none" xmlns="http://www.w3.org/2000/svg">
<g clip-path="url(#clip0_119_688)">
<path d="M6.24023 0.162258C6.04688 0.267727 5.85352 0.469875 5.73926 0.70718C5.5459 1.07632 5.53711 1.19058 5.53711 3.1857V5.27749H4.59668C3.50684 5.27749 3.16406 5.40054 2.83887 5.88394C2.33789 6.63101 2.8125 9.048 3.69141 10.2873L3.87598 10.5509H2.44336C0.834961 10.5509 0.571289 10.6212 0.193359 11.1662L0 11.4562V25.2023V38.9484L0.342773 39.3175L0.694336 39.6867L3.84082 39.713C6.78516 39.7306 7.00488 39.7218 7.29492 39.5724C7.46191 39.4757 7.68164 39.2648 7.77832 39.1066C7.94531 38.8166 7.9541 38.6056 7.99805 31.3986L8.04199 23.9894L14.8535 29.0959C18.5977 31.9084 21.7705 34.2638 21.9023 34.3341C22.21 34.4923 22.79 34.4923 23.0977 34.3341C23.2295 34.2638 26.4023 31.9084 30.1465 29.0959L36.958 23.9894L37.002 31.3986C37.0459 38.6056 37.0547 38.8166 37.2217 39.1066C37.3184 39.2648 37.5381 39.4757 37.7051 39.5724C37.9951 39.7218 38.2148 39.7306 41.1592 39.713L44.3057 39.6867L44.6572 39.3175L45 38.9484V25.2023V11.4562L44.8066 11.1662C44.4727 10.6916 44.1123 10.5509 43.1807 10.5509H42.3633V5.73452C42.3633 1.0939 42.3545 0.918118 42.1875 0.636868C42.0908 0.478664 41.8887 0.276516 41.7305 0.179836C41.4492 0.0128441 41.2734 0.00405502 35.7188 0.00405502H29.9971L29.6982 0.206203C29.127 0.584133 29.0918 0.759914 29.0918 3.14175C29.0918 5.12808 29.083 5.27749 28.9336 5.27749C28.8105 5.27749 28.6348 4.84683 28.0459 3.05386C27.6416 1.84097 27.2549 0.724758 27.1846 0.592922C27.1143 0.461086 26.9385 0.267727 26.7803 0.179836C26.5166 0.0128441 26.3145 0.00405502 22.5 0.00405502C18.6855 0.00405502 18.4834 0.0128441 18.2197 0.179836C18.0615 0.267727 17.8857 0.461086 17.8154 0.592922C17.7451 0.724758 17.3584 1.84097 16.9541 3.05386L16.2158 5.27749H14.5723H12.9199V3.03628V0.786282L12.5771 0.417141C12.2344 0.0480003 12.2256 0.0480003 11.6016 0.0480003C10.9775 0.0480003 10.9688 0.0480003 10.626 0.417141L10.2832 0.786282V3.03628V5.27749H9.27246H8.26172V3.09781C8.26172 1.08511 8.24414 0.909328 8.08594 0.636868C7.7168 0.0392113 6.89062 -0.180515 6.24023 0.162258ZM25.4971 4.02066L25.9189 5.27749H22.5H19.0811L19.4766 4.10855C19.6875 3.47573 19.8809 2.89566 19.9072 2.83413C19.9336 2.74624 20.5049 2.72866 22.5088 2.74624L25.0752 2.77261L25.4971 4.02066ZM34.3652 6.6398V10.5509H33.0908H31.8164V6.6398V2.72866H33.0908H34.3652V6.6398ZM39.6387 6.6398V10.5509H38.3643H37.0898V6.6398V2.72866H38.3643H39.6387V6.6398ZM12.9199 8.07241C12.9199 8.25698 12.208 9.22378 11.8125 9.57534C10.793 10.4718 9.43945 10.7794 8.18262 10.3839C7.45312 10.1554 6.97852 9.85659 6.44238 9.30288C6.06445 8.89859 5.625 8.22183 5.625 8.04605C5.625 8.01968 7.26855 8.0021 9.27246 8.0021C11.2764 8.0021 12.9199 8.03726 12.9199 8.07241ZM28.5996 8.45913C28.1426 9.36441 27.0352 10.2169 26.0068 10.4543C25.4971 10.5773 19.5029 10.5773 18.9932 10.4543C17.9648 10.2169 16.8574 9.36441 16.4004 8.45913L16.1719 8.0021H22.5H28.8281L28.5996 8.45913ZM42.3633 14.8839V16.4835L32.4316 23.9367L22.5 31.381L12.5684 23.9367L2.63672 16.4835V14.8839V13.2755H22.5H42.3633V14.8839ZM4.24512 21.1418L5.27344 21.9064V29.4562V37.006H3.95508H2.63672V28.4718V19.9377L2.92676 20.1486C3.07617 20.2716 3.67383 20.7111 4.24512 21.1418ZM42.3633 28.4806V37.006H41.0449H39.7266V29.4562V21.9064L41.0273 20.9308C41.7393 20.3947 42.3281 19.9552 42.3457 19.9552C42.3545 19.9552 42.3633 23.7873 42.3633 28.4806Z" fill="#5D8AA9"/>
</g>
<defs>
<clipPath id="clip0_119_688">
<rect width="45" height="40.0001" fill="white"/>
</clipPath>
</defs>
</svg>
