<svg width="45" height="45" viewBox="0 0 45 45" fill="none" xmlns="http://www.w3.org/2000/svg">
<path d="M20.2063 0.131828C14.2122 1.10741 9.51879 5.5371 8.34106 11.3291C8.07738 12.5947 8.02465 14.8535 8.20922 16.3301C8.7102 20.2412 10.5383 24.5039 13.4475 28.5117C13.7815 28.9775 14.0627 29.3818 14.0627 29.3994C14.0627 29.4258 12.5686 29.4434 10.7493 29.4434C7.69945 29.4434 7.40063 29.4609 7.06664 29.6103C6.86449 29.6982 6.62719 29.8916 6.53051 30.0234C6.43383 30.1641 5.27367 33.1875 3.95531 36.7383C2.15356 41.5898 1.5559 43.2949 1.5559 43.6025C1.54711 44.0859 1.78442 44.5254 2.1975 44.7979L2.48754 45H22.5002H42.5129L42.803 44.7979C43.2161 44.5254 43.4534 44.0859 43.4446 43.6025C43.4446 43.2949 42.8469 41.5986 41.0452 36.7383C39.7268 33.1875 38.5666 30.1641 38.47 30.0234C38.3733 29.8916 38.136 29.6982 37.9338 29.6103C37.5998 29.4609 37.301 29.4434 34.26 29.4434C32.4319 29.4434 30.9377 29.4258 30.9377 29.4082C30.9377 29.3906 31.2541 28.9248 31.6409 28.3887C32.7483 26.8506 33.6096 25.4004 34.4534 23.6865C35.6047 21.3574 36.2639 19.4238 36.6682 17.2002C36.8352 16.2949 36.8704 15.8291 36.8616 14.1943C36.8616 12.5244 36.8352 12.1377 36.6594 11.3379C36.0881 8.6748 34.9631 6.51269 33.1086 4.52636C31.0696 2.33788 28.5295 0.905266 25.5325 0.263664C24.3899 0.0175705 21.3752 -0.0615311 20.2063 0.131828ZM24.1965 2.99706C28.8899 3.6123 32.7922 7.2246 33.803 11.8828C34.0051 12.7969 34.0579 14.6689 33.926 15.8027C33.4514 19.8105 31.1926 24.5215 27.7473 28.6523C26.2532 30.4453 22.9221 33.5742 22.5002 33.5742C22.0959 33.5742 18.9407 30.6387 17.4465 28.8721C13.8518 24.6094 11.5754 19.9336 11.0657 15.7852C10.9338 14.6514 11.0129 12.6826 11.2414 11.6894C12.1379 7.76073 15.2493 4.48241 19.1516 3.34863C20.7864 2.87402 22.4036 2.75976 24.1965 2.99706ZM12.595 35.6748C13.6409 37.5117 14.5022 39.041 14.5022 39.085C14.5022 39.1641 5.45824 41.5195 5.38793 41.4492C5.35277 41.4229 7.03149 36.8262 8.52563 32.8447L8.7102 32.3437H9.69457L10.6789 32.3525L12.595 35.6748ZM16.7786 32.5107C17.0686 33.0469 20.8918 36.2285 21.762 36.6504C22.2102 36.8701 22.7903 36.8701 23.2385 36.6504C24.1086 36.2285 27.9319 33.0469 28.2219 32.502C28.301 32.3525 28.4768 32.3437 32.3176 32.3613L36.3166 32.3877L36.51 32.915L36.7034 33.4512L29.2239 35.3672C25.1194 36.4307 20.8039 37.5381 19.635 37.8369L17.5168 38.3818L16.1194 35.9648C15.3547 34.6289 14.5725 33.2754 14.3879 32.9414L14.0452 32.3437H15.3723C16.5676 32.3437 16.6995 32.3613 16.7786 32.5107ZM38.8215 39.1553C39.4104 40.7549 39.9026 42.082 39.9026 42.126C39.9026 42.1611 38.6457 42.1787 37.1164 42.1699L34.3303 42.1436L33.0735 39.9551C32.3791 38.751 31.8254 37.749 31.8518 37.7314C31.9133 37.6611 37.4768 36.2285 37.6174 36.2461C37.7053 36.2549 38.1096 37.2305 38.8215 39.1553ZM29.9094 40.3154C30.4807 41.3086 30.9289 42.1348 30.9114 42.1523C30.8938 42.1699 27.2112 42.1787 22.7375 42.1699L14.5901 42.1436L21.6038 40.333C25.4534 39.3311 28.6702 38.5137 28.7405 38.5049C28.8196 38.5049 29.259 39.1816 29.9094 40.3154Z" fill="#5D8AA9"/>
<path d="M21.4457 7.39155C18.2025 7.82221 15.4867 10.3359 14.8099 13.5527C14.599 14.5107 14.6166 16.0488 14.8451 16.998C15.5746 20.0566 18.0443 22.3945 21.1468 22.9394C22.1576 23.1152 23.8627 23.0185 24.7855 22.7197C26.93 22.0341 28.5912 20.6279 29.5404 18.6767C30.1205 17.4814 30.3314 16.541 30.3314 15.1787C30.3314 12.9199 29.5228 11.039 27.8968 9.49214C26.183 7.86616 23.8011 7.08393 21.4457 7.39155ZM23.8451 10.4326C25.4447 10.9072 26.7543 12.1992 27.2552 13.79C27.475 14.5107 27.4925 15.6621 27.2904 16.4443C26.8597 18.123 25.4359 19.5468 23.7308 19.9951C23.1068 20.1621 21.8851 20.1621 21.2699 19.9951C19.9339 19.6435 18.6771 18.6152 18.0882 17.4023C17.6839 16.5585 17.5609 16.0312 17.5697 15.1611C17.5785 13.7988 18.0267 12.7353 19.0287 11.7246C19.8285 10.916 20.8041 10.4238 21.9291 10.248C22.3509 10.1865 23.3441 10.2832 23.8451 10.4326Z" fill="#5D8AA9"/>
</svg>
