<svg width="50" height="38" viewBox="0 0 50 38" fill="none" xmlns="http://www.w3.org/2000/svg">
<g clip-path="url(#clip0_7_43)">
<path fill-rule="evenodd" clip-rule="evenodd" d="M49.6363 35.8129C49.4362 35.8129 49.2726 35.975 49.2726 36.1732C49.2726 36.3714 49.4362 36.5335 49.6363 36.5335C49.8363 36.5335 50 36.3714 50 36.1732C50 35.975 49.8381 35.8129 49.6363 35.8129ZM49.6363 36.4759C49.4672 36.4759 49.3308 36.3389 49.3308 36.1732C49.3308 36.0056 49.469 35.8705 49.6363 35.8705C49.8054 35.8705 49.9436 36.0074 49.9436 36.1732C49.9436 36.3389 49.8054 36.4759 49.6363 36.4759ZM49.7545 36.1119C49.7545 36.0471 49.7072 36.0074 49.6381 36.0074H49.5217V36.3353H49.5781V36.2164H49.6399L49.6999 36.3353H49.7618L49.6963 36.2038C49.7327 36.1876 49.7545 36.157 49.7545 36.1119ZM49.6363 36.166H49.5799V36.0579H49.6363C49.6745 36.0579 49.6981 36.0777 49.6981 36.1119C49.6981 36.1462 49.6745 36.166 49.6363 36.166ZM5.84673 32.17V31.2998H4.49916V36.4813H5.84673V33.3752C5.84673 32.8131 6.21045 32.5357 6.77966 32.5357H7.518V31.2998H6.88878C6.3923 31.298 5.96312 31.5538 5.84673 32.17ZM8.77828 29.2495C8.31636 29.2495 7.96356 29.6098 7.96356 30.0675C7.96356 30.5143 8.31636 30.8746 8.77828 30.8746C9.2402 30.8746 9.593 30.5143 9.593 30.0675C9.593 29.6098 9.2402 29.2495 8.77828 29.2495ZM8.1054 36.4795H9.44933V31.298H8.1054V36.4795ZM15.8562 33.8887C15.8562 35.3679 14.6468 36.5659 13.1538 36.5659C12.5518 36.5659 12.0044 36.3696 11.568 36.0399V38H10.224V31.298H11.568V31.7358C12.0063 31.4061 12.5518 31.2097 13.1538 31.2097C14.645 31.2115 15.8562 32.4096 15.8562 33.8887ZM14.5032 33.8887C14.5032 33.0852 13.8448 32.4348 13.0356 32.4348C12.2245 32.4348 11.568 33.087 11.568 33.8887C11.568 34.6922 12.2263 35.3426 13.0356 35.3426C13.8448 35.3426 14.5032 34.6922 14.5032 33.8887ZM39.2249 33.4347L38.4411 33.2221C37.9246 33.0888 37.7246 32.932 37.7246 32.6618C37.7246 32.3988 38.0065 32.215 38.412 32.215C38.7976 32.215 39.0994 32.4654 39.0994 32.7843V32.8131H40.3379V32.7843C40.3379 31.8439 39.565 31.2133 38.412 31.2133C37.2718 31.2133 36.4425 31.8439 36.4425 32.714C36.4425 33.3915 36.8953 33.9013 37.6846 34.1121L38.4357 34.3157C39.0067 34.4724 39.2195 34.6454 39.2195 34.9571C39.2195 35.285 38.9121 35.5066 38.4557 35.5066C37.9792 35.5066 37.6591 35.2075 37.6591 34.7643V34.7355H36.3443V34.7643C36.3443 35.8273 37.2081 36.5695 38.4447 36.5695C39.6359 36.5695 40.5016 35.8435 40.5016 34.8454C40.5016 34.3535 40.2797 33.7122 39.2249 33.4347ZM20.6263 31.298H21.9702V36.4795H20.6263V36.0417C20.188 36.3714 19.6425 36.5677 19.0405 36.5677C17.5475 36.5677 16.3381 35.3697 16.3381 33.8905C16.3381 32.4114 17.5475 31.2133 19.0405 31.2133C19.6425 31.2133 20.1899 31.4097 20.6263 31.7394V31.298ZM20.6263 33.8887C20.6263 33.0852 19.968 32.4348 19.1587 32.4348C18.3495 32.4348 17.6911 33.087 17.6911 33.8887C17.6911 34.6922 18.3495 35.3426 19.1587 35.3426C19.968 35.3426 20.6263 34.6922 20.6263 33.8887ZM26.8259 29.4549H28.1698V36.4795H26.8259V36.0417C26.3876 36.3714 25.842 36.5677 25.2401 36.5677C23.747 36.5677 22.5376 35.3697 22.5376 33.8905C22.5376 32.4114 23.747 31.2133 25.2401 31.2133C25.842 31.2133 26.3894 31.4097 26.8259 31.7394V29.4549ZM26.8259 33.8887C26.8259 33.0852 26.1675 32.4348 25.3583 32.4348C24.5472 32.4348 23.8907 33.087 23.8907 33.8887C23.8907 34.6922 24.5472 35.3426 25.3583 35.3426C26.1675 35.3426 26.8259 34.6922 26.8259 33.8887ZM34.413 36.4795H35.7569V31.298H34.413V36.4795ZM35.0858 29.2495C34.6239 29.2495 34.2711 29.6098 34.2711 30.0675C34.2711 30.5143 34.6239 30.8746 35.0858 30.8746C35.5459 30.8746 35.9006 30.5143 35.9006 30.0675C35.8987 29.6098 35.5459 29.2495 35.0858 29.2495ZM46.3137 33.8887C46.3137 35.3679 45.1044 36.5659 43.6113 36.5659C42.1183 36.5659 40.9089 35.3679 40.9089 33.8887C40.9089 32.4096 42.1183 31.2115 43.6113 31.2115C45.1026 31.2115 46.3137 32.4096 46.3137 33.8887ZM45.0789 33.8887C45.0789 33.0852 44.4206 32.4348 43.6113 32.4348C42.8002 32.4348 42.1437 33.087 42.1437 33.8887C42.1437 34.6922 42.8002 35.3426 43.6113 35.3426C44.4206 35.3426 45.0789 34.6922 45.0789 33.8887ZM5.15749 29.4549H0V30.644H1.90951V36.4795H3.2498V30.644H5.15931L5.15749 29.4549ZM31.2432 35.0598L30.0466 31.298H28.6335L30.4285 36.4795H32.047L33.851 31.298H32.438L31.2432 35.0598ZM48.2833 32.17V31.2998H46.9357V36.4813H48.2833V33.3752C48.2833 32.8131 48.647 32.5357 49.2162 32.5357H49.9545V31.2998H49.3253C48.8288 31.298 48.4015 31.5538 48.2833 32.17Z" fill="white"/>
<path fill-rule="evenodd" clip-rule="evenodd" d="M40.1122 6.76693L43.0983 3.54921H36.4787C33.1634 1.30618 29.1607 0 24.8307 0C20.5079 0 16.5161 1.30979 13.2063 3.54921H6.57031L9.55642 6.76693C7.72693 8.42082 6.57941 10.8026 6.57941 13.4492C6.57941 18.4415 10.6658 22.488 15.705 22.488C18.0983 22.488 20.2806 21.5727 21.9082 20.0774L24.8325 23.232L27.7568 20.081C29.3844 21.5763 31.563 22.488 33.9563 22.488C38.9956 22.488 43.0874 18.4397 43.0874 13.4492C43.0892 10.8008 41.9417 8.41902 40.1122 6.76693ZM15.7069 19.5657C12.2952 19.5657 9.53096 16.8272 9.53096 13.4474C9.53096 10.0675 12.2952 7.32903 15.7069 7.32903C19.1185 7.32903 21.8827 10.0675 21.8827 13.4474C21.8809 16.8272 19.1167 19.5657 15.7069 19.5657ZM24.8343 13.2708C24.8343 9.24597 21.8791 5.78864 17.9783 4.3131C20.0878 3.43931 22.401 2.95467 24.8307 2.95467C27.2603 2.95467 29.5772 3.43931 31.6867 4.3131C27.7895 5.79224 24.8343 9.24597 24.8343 13.2708ZM33.9581 19.5657C30.5464 19.5657 27.7822 16.8272 27.7822 13.4474C27.7822 10.0675 30.5464 7.32903 33.9581 7.32903C37.3698 7.32903 40.134 10.0675 40.134 13.4474C40.134 16.8272 37.3698 19.5657 33.9581 19.5657ZM33.9581 10.2387C32.1704 10.2387 30.721 11.6728 30.721 13.4456C30.721 15.2166 32.1686 16.6525 33.9581 16.6525C35.7458 16.6525 37.1952 15.2184 37.1952 13.4456C37.1952 11.6764 35.7476 10.2387 33.9581 10.2387ZM18.9439 13.4492C18.9439 15.2202 17.4945 16.6561 15.7069 16.6561C13.9192 16.6561 12.4698 15.222 12.4698 13.4492C12.4698 11.6782 13.9174 10.2423 15.7069 10.2423C17.4945 10.2387 18.9439 11.6764 18.9439 13.4492Z" fill="white"/>
</g>
<defs>
<clipPath id="clip0_7_43">
<rect width="50" height="38" fill="white"/>
</clipPath>
</defs>
</svg>
