<svg width="36" height="24" viewBox="0 0 36 24" fill="none" xmlns="http://www.w3.org/2000/svg">
<g clip-path="url(#clip0_7_46)">
<path fill-rule="evenodd" clip-rule="evenodd" d="M16.6271 24H12.2542V3.25203H10.3051C6.72881 3.25203 4.86441 4.95935 4.86441 7.52845C4.86441 10.4228 6.15254 11.7724 8.83051 13.4959L11.0339 14.9268L4.71186 24.0325H0L5.69492 15.9024C2.42373 13.6423 0.576271 11.4472 0.576271 7.7561C0.576271 3.13821 3.9322 0 10.2881 0H16.6102V24H16.6271Z" fill="white"/>
<path d="M34.5416 8.0488L27.7789 7.57726C27.3722 7.54474 27.0332 7.30084 26.8806 6.94311L24.3044 0.926854C24.0332 0.308968 23.4399 -0.0162354 22.8467 -0.0162354C22.2535 -0.0162354 21.6603 0.292708 21.3891 0.926854L18.8128 6.95937C18.762 7.10572 18.6603 7.21954 18.5586 7.3171V22.5366L22.2196 20.3577C22.5586 20.1464 22.9993 20.1464 23.3383 20.3577L29.1179 23.7724C29.3891 23.935 29.6603 24.0163 29.9315 24.0163C30.8298 24.0163 31.6433 23.1708 31.4061 22.1626L29.8128 15.9025C29.7111 15.5122 29.8637 15.122 30.1688 14.8618L35.4569 10.7155C36.5247 9.8049 35.9145 8.13011 34.5416 8.0488Z" fill="white"/>
</g>
<defs>
<clipPath id="clip0_7_46">
<rect width="36" height="24" fill="white"/>
</clipPath>
</defs>
</svg>
