<svg width="603" height="537" viewBox="0 0 603 537" fill="none" xmlns="http://www.w3.org/2000/svg">
<g opacity="0.1" clip-path="url(#clip0_132_393)">
<path d="M0 5.23974C175.283 -21.9672 287.795 65.526 287.795 65.526C375.437 188.887 346.801 334.174 346.801 334.174C180.232 259.988 13.6622 361.381 13.6622 361.381C141.741 213.01 0 5.23974 0 5.23974Z" fill="white"/>
<path d="M317.277 387.362C317.277 401.557 308.733 413.597 296.805 418.413C306.576 412.287 313.259 400.754 313.259 387.362C313.259 373.969 306.576 362.394 296.805 356.31C308.733 361.126 317.277 373.167 317.277 387.362ZM300.696 387.362C300.696 399.106 291.602 408.612 280.393 408.612C269.184 408.612 260.09 399.106 260.09 387.362C260.09 375.617 269.184 366.112 280.393 366.112C291.602 366.112 300.696 375.617 300.696 387.362ZM327.429 387.362C327.429 363.788 309.156 344.692 286.611 344.692C264.066 344.692 245.836 363.788 245.836 387.362C245.836 410.936 264.066 430.031 286.611 430.031C309.156 430.031 327.429 410.936 327.429 387.362Z" fill="white"/>
<path d="M186.238 423.483C174.987 423.483 165.893 413.935 165.893 402.233C165.893 390.488 174.987 380.982 186.238 380.982C197.447 380.982 206.541 390.488 206.541 402.233C206.541 413.935 197.447 423.483 186.238 423.483ZM202.607 433.242C212.378 427.158 219.061 415.583 219.061 402.19C219.061 388.756 212.378 377.222 202.607 371.139C214.578 375.955 223.079 387.995 223.079 402.19C223.079 416.385 214.578 428.468 202.607 433.242ZM192.456 444.86C214.958 444.86 233.231 425.764 233.231 402.19C233.231 378.617 214.958 359.521 192.456 359.521C169.911 359.521 151.638 378.617 151.638 402.19C151.638 425.764 169.911 444.86 192.456 444.86Z" fill="white"/>
<path d="M97.2008 430.876C85.9496 430.876 76.8555 421.328 76.8555 409.626C76.8555 397.881 85.9496 388.376 97.2008 388.376C108.41 388.376 117.504 397.881 117.504 409.626C117.504 421.37 108.41 430.876 97.2008 430.876ZM113.57 440.677C123.341 434.552 130.024 423.018 130.024 409.626C130.024 396.191 123.341 384.658 113.57 378.574C125.54 383.391 134.042 395.431 134.042 409.626C134.042 423.821 125.54 435.861 113.57 440.677ZM103.419 452.295C125.921 452.295 144.194 433.2 144.194 409.626C144.194 386.052 125.921 366.957 103.419 366.957C80.8738 366.957 62.6011 386.052 62.6011 409.626C62.6011 433.2 80.8738 452.295 103.419 452.295Z" fill="white"/>
<path d="M448.147 433.242C448.147 433.242 295.79 503.583 165.935 484.403C165.935 484.403 372.053 485.797 448.147 335.99C448.147 335.99 399.082 374.392 327.429 366.914C327.429 366.914 455.634 339.074 392.229 199.363C328.825 59.6104 428.902 71.3551 428.902 71.3551C428.902 71.3551 407.584 53.6537 373.788 49.0065C373.788 49.0065 432.074 45.7535 475.895 85.3811C475.895 85.3811 449.078 40.6416 397.559 15.1245C397.559 15.1245 481.055 9.46342 515.274 89.2678C515.274 89.2678 546.363 101.012 556.895 132.529C567.47 164.045 608.795 175.494 602.281 184.154C595.767 192.815 601.647 208.869 579.271 214.15C579.271 214.15 593.568 206.123 588.281 194.04C582.993 182 569.966 181.028 548.478 177.352C527.033 173.635 513.371 144.273 513.371 144.273C513.371 144.273 521.365 217.741 554.104 204.559C554.104 204.559 550.086 219.092 528.302 217.867C506.561 216.6 504.7 233.33 504.7 233.33C504.7 233.33 503.473 210.77 510.918 202.743C518.362 194.716 465.828 173.381 471.75 136.88C471.75 136.88 423.868 127.29 416.085 156.99C408.345 186.647 536.381 270.422 535.154 361.338C533.885 452.253 482.324 607.426 18.6113 501.09C18.6536 501.133 342.783 564.503 448.147 433.242Z" fill="white"/>
</g>
<defs>
<clipPath id="clip0_132_393">
<rect width="603" height="537" fill="white"/>
</clipPath>
</defs>
</svg>
