<svg width="376" height="17" viewBox="0 0 376 17" fill="none" xmlns="http://www.w3.org/2000/svg">
<g clip-path="url(#clip0_132_829)">
<path d="M304.611 10.5983C305.749 10.5983 306.671 9.65993 306.671 8.50244C306.671 7.34495 305.749 6.40662 304.611 6.40662C303.473 6.40662 302.551 7.34495 302.551 8.50244C302.551 9.65993 303.473 10.5983 304.611 10.5983Z" fill="#A49686"/>
<path d="M372.485 9.98249C373.291 10.8019 374.594 10.8019 375.4 9.98249C376.205 9.16303 376.205 7.837 375.4 7.01755C374.594 6.19809 373.291 6.19809 372.485 7.01755C371.679 7.837 371.679 9.16303 372.485 9.98249Z" fill="#A49686"/>
<path d="M363.107 9.98249C363.912 10.8019 365.216 10.8019 366.021 9.98249C366.827 9.16303 366.827 7.837 366.021 7.01755C365.216 6.19809 363.912 6.19809 363.107 7.01755C362.301 7.837 362.301 9.16303 363.107 9.98249Z" fill="#A49686"/>
<path d="M353.734 9.98249C354.539 10.8019 355.843 10.8019 356.648 9.98249C357.454 9.16303 357.454 7.837 356.648 7.01755C355.843 6.19809 354.539 6.19809 353.734 7.01755C352.928 7.837 352.928 9.16303 353.734 9.98249Z" fill="#A49686"/>
<path d="M353.636 16.9999C353.392 16.9999 353.148 16.9056 352.957 16.7169L345.561 9.18779C345.38 9.00403 345.283 8.75571 345.283 8.49746C345.283 8.2392 345.385 7.99088 345.561 7.80713L352.957 0.283026C353.333 -0.0993875 353.938 -0.0993875 354.314 0.283026C354.69 0.665439 354.69 1.28127 354.314 1.66369L347.592 8.50242L354.314 15.3412C354.69 15.7236 354.69 16.3394 354.314 16.7218C354.129 16.9056 353.88 16.9999 353.636 16.9999Z" fill="#A49686"/>
<path d="M346.225 9.47588H309.708C309.181 9.47588 308.751 9.03884 308.751 8.50247C308.751 7.9661 309.181 7.52905 309.708 7.52905H346.225C346.752 7.52905 347.182 7.9661 347.182 8.50247C347.182 9.03884 346.757 9.47588 346.225 9.47588Z" fill="#A49686"/>
<path d="M296.526 9.47588H111.548C109.366 9.47588 107.604 9.03884 107.604 8.50247C107.604 7.9661 109.371 7.52905 111.548 7.52905H296.526C298.708 7.52905 300.471 7.9661 300.471 8.50247C300.471 9.03884 298.708 9.47588 296.526 9.47588Z" fill="#A49686"/>
<path d="M72.2628 10.5983C73.4006 10.5983 74.323 9.65993 74.323 8.50244C74.323 7.34495 73.4006 6.40662 72.2628 6.40662C71.125 6.40662 70.2026 7.34495 70.2026 8.50244C70.2026 9.65993 71.125 10.5983 72.2628 10.5983Z" fill="#A49686"/>
<path d="M13.7672 9.98249C12.9617 10.8019 11.6582 10.8019 10.8527 9.98249C10.0472 9.16303 10.0472 7.837 10.8527 7.01755C11.6582 6.19809 12.9617 6.19809 13.7672 7.01755C14.5727 7.837 14.5727 9.16303 13.7672 9.98249Z" fill="#A49686"/>
<path d="M3.51478 9.98249C2.70925 10.8019 1.40576 10.8019 0.600238 9.98249C-0.205288 9.16303 -0.205288 7.837 0.600238 7.01755C1.40576 6.19809 2.70925 6.19809 3.51478 7.01755C4.3203 7.837 4.3203 9.16303 3.51478 9.98249Z" fill="#A49686"/>
<path d="M23.1456 9.98249C22.3401 10.8019 21.0366 10.8019 20.2311 9.98249C19.4256 9.16303 19.4256 7.837 20.2311 7.01755C21.0366 6.19809 22.3401 6.19809 23.1456 7.01755C23.9463 7.837 23.9463 9.16303 23.1456 9.98249Z" fill="#A49686"/>
<path d="M23.2384 16.9999C22.9943 16.9999 22.7502 16.9056 22.5598 16.7169C22.1839 16.3344 22.1839 15.7186 22.5598 15.3362L29.2822 8.49746L22.5598 1.66369C22.1839 1.28127 22.1839 0.665439 22.5598 0.283026C22.9357 -0.0993875 23.541 -0.0993875 23.917 0.283026L31.3131 7.80713C31.6891 8.18954 31.6891 8.80537 31.3131 9.18779L23.917 16.7169C23.7314 16.9056 23.4825 16.9999 23.2384 16.9999Z" fill="#A49686"/>
<path d="M67.1664 9.47588H30.6492C30.122 9.47588 29.6924 9.03884 29.6924 8.50247C29.6924 7.9661 30.122 7.52905 30.6492 7.52905H67.1664C67.6937 7.52905 68.1233 7.9661 68.1233 8.50247C68.1233 9.03884 67.6937 9.47588 67.1664 9.47588Z" fill="#A49686"/>
<path d="M122.269 9.47588H77.3597C76.8324 9.47588 76.4028 9.03884 76.4028 8.50247C76.4028 7.9661 76.8324 7.52905 77.3597 7.52905H122.269C122.796 7.52905 123.226 7.9661 123.226 8.50247C123.226 9.03884 122.796 9.47588 122.269 9.47588Z" fill="#A49686"/>
</g>
<defs>
<clipPath id="clip0_132_829">
<rect width="376" height="17" fill="white"/>
</clipPath>
</defs>
</svg>
