<svg width="102" height="102" viewBox="0 0 102 102" fill="none" xmlns="http://www.w3.org/2000/svg">
<g clip-path="url(#clip0_132_1270)">
<path d="M100.466 38.5153C97.7446 27.699 91.3954 17.9112 82.5963 10.9575C73.5204 3.78908 62.5936 0 51.0028 0C39.4092 0 28.4853 3.78908 19.4122 10.9604C10.6075 17.9112 4.25824 27.699 1.53715 38.5181C0.517092 42.5728 0 46.7715 0 50.9986C0 55.2256 0.517092 59.4244 1.53715 63.4819C4.25824 74.301 10.6046 84.0859 19.4065 91.0396C28.4853 98.2109 39.4064 102 50.9972 102C62.5908 102 73.5147 98.2109 82.5878 91.0396C91.3925 84.0859 97.7361 74.2982 100.46 63.4819C101.48 59.4272 101.997 55.2256 101.997 50.9986C102 46.7715 101.489 42.5728 100.466 38.5153ZM98.1458 62.897C95.5519 73.2047 89.5022 82.5347 81.11 89.1635C72.4607 95.9957 62.0511 99.6068 51 99.6068C39.9489 99.6068 29.5393 95.9957 20.89 89.1635C12.5006 82.5319 6.44811 73.2047 3.85417 62.8942C2.88215 59.0288 2.38767 55.0278 2.38767 50.9958C2.38767 46.9637 2.88215 42.9599 3.85417 39.0973C6.44811 28.7897 12.4978 19.4597 20.89 12.8309C29.5421 5.99584 39.9546 2.3876 51.0028 2.3876C62.0511 2.3876 72.4636 5.99867 81.1129 12.8309C89.505 19.4597 95.5547 28.7868 98.1486 39.0973C99.1235 42.9627 99.6152 46.9637 99.6152 50.9958C99.6152 55.0278 99.1207 59.0317 98.1458 62.897ZM96.6058 39.5409L96.312 38.3655L96.2922 38.3683C93.6389 28.8547 87.9368 20.2734 80.138 14.108C71.7713 7.49057 61.695 3.99252 51.0028 3.99252C40.3106 3.99252 30.2344 7.49057 21.8648 14.108C14.0689 20.2762 8.36672 28.8547 5.71062 38.3683L5.69367 38.3655L5.3998 39.5409C4.46734 43.2735 3.99546 47.1247 3.99546 50.9986C3.99546 51.4818 4.00393 51.9649 4.01806 52.4509C4.04914 53.4936 4.11696 54.5334 4.21868 55.5704C4.44473 57.8958 4.8375 60.2015 5.40263 62.4562L5.69649 63.6317L5.71627 63.6289C8.36955 73.1454 14.0717 81.7266 21.8705 87.8948C30.2372 94.5123 40.3162 98.0103 51.0056 98.0103C61.695 98.0103 71.7741 94.5123 80.1408 87.8948C87.9396 81.7266 93.6417 73.1482 96.295 63.6289L96.312 63.6317L96.6058 62.4562C97.5383 58.7265 98.0102 54.8724 98.0102 50.9986C98.0102 50.5154 98.0017 50.0322 97.9876 49.5463C97.883 46.1669 97.4225 42.8045 96.6058 39.5409ZM95.5999 52.304C95.5943 52.4481 95.5886 52.5922 95.5801 52.7335C95.5688 53.0245 95.5575 53.3156 95.5406 53.6066C95.5293 53.7789 95.518 53.9485 95.5038 54.118C95.4869 54.3836 95.4671 54.6464 95.4445 54.9092C95.4276 55.09 95.4106 55.268 95.3936 55.4489C95.3682 55.7032 95.34 55.9603 95.3117 56.2118C95.2919 56.3926 95.2693 56.5734 95.2467 56.7571C95.2128 57.0114 95.1789 57.2629 95.1422 57.5143C95.1167 57.6952 95.0885 57.8732 95.063 58.0512C95.0207 58.3111 94.9783 58.5711 94.9302 58.8311C94.8992 58.9978 94.8709 59.1673 94.8398 59.334C94.7833 59.6222 94.7268 59.9076 94.6674 60.193C94.6392 60.3314 94.6138 60.4699 94.5827 60.6055C94.577 60.6338 94.5686 60.662 94.5629 60.6903L76.2923 55.8501C76.3036 55.7851 76.3149 55.7173 76.329 55.6523C76.3432 55.5732 76.3573 55.4912 76.3714 55.4121C76.3997 55.2539 76.4251 55.09 76.4477 54.9318C76.459 54.8611 76.4703 54.7961 76.4816 54.7255C76.5127 54.4966 76.5438 54.2678 76.572 54.0389C76.5749 54.0135 76.5777 53.9909 76.5805 53.9654C76.6031 53.7592 76.6257 53.5529 76.6427 53.3466C76.6483 53.2703 76.654 53.1941 76.6596 53.1206C76.6709 52.9624 76.6851 52.8013 76.6964 52.6431C76.702 52.5611 76.7077 52.4764 76.7105 52.3944C76.719 52.2334 76.7275 52.0723 76.7303 51.9084C76.7331 51.835 76.7359 51.7615 76.7388 51.688C76.7444 51.4563 76.7501 51.2218 76.7501 50.9901C76.7501 50.7556 76.7444 50.5239 76.7388 50.2894C76.7359 50.2159 76.7331 50.1424 76.7303 50.069C76.7246 49.9079 76.719 49.7469 76.7105 49.5858C76.7077 49.501 76.6992 49.4219 76.6964 49.3372C76.6851 49.1789 76.6738 49.0207 76.6596 48.8625C76.654 48.7862 76.6483 48.7099 76.6427 48.6336C76.6229 48.4302 76.6031 48.2267 76.5805 48.0233C76.5749 47.9978 76.572 47.9668 76.572 47.9413C76.5466 47.7125 76.5155 47.4864 76.4816 47.2575C76.4703 47.1841 76.459 47.1163 76.4505 47.0456C76.4251 46.8846 76.3997 46.7263 76.3714 46.5709C76.3573 46.489 76.3432 46.4071 76.329 46.3251C76.3177 46.2601 76.3064 46.1923 76.2923 46.1273L94.5629 41.2871C94.5686 41.3154 94.577 41.3436 94.5827 41.3719C94.6109 41.5047 94.6392 41.6403 94.6674 41.776C94.7296 42.067 94.789 42.358 94.8426 42.6462C94.8737 42.8101 94.902 42.974 94.9302 43.135C94.9783 43.4007 95.0235 43.6663 95.063 43.9319C95.0885 44.1042 95.1167 44.2766 95.1422 44.4518C95.1817 44.7089 95.2156 44.9688 95.2495 45.226C95.2721 45.404 95.2947 45.582 95.3145 45.76C95.3456 46.0199 95.371 46.2771 95.3993 46.537C95.4162 46.7122 95.4332 46.8902 95.4501 47.0654C95.4728 47.3338 95.4925 47.5994 95.5123 47.8679C95.5236 48.0346 95.5378 48.2041 95.5462 48.3708C95.5632 48.6647 95.5745 48.9557 95.5886 49.2496C95.5943 49.3937 95.6027 49.535 95.6084 49.6762C95.6197 50.1114 95.6282 50.5465 95.6282 50.9816C95.6197 51.4337 95.6112 51.8689 95.5999 52.304ZM23.3483 15.9842C31.2911 9.70298 40.8531 6.38295 51.0028 6.38295C61.1525 6.38295 70.7145 9.70298 78.6545 15.9842C86.0492 21.8331 91.4575 29.9651 93.9808 38.9843L75.73 43.8188C74.2607 38.7554 71.2175 34.195 67.0694 30.8778C62.4636 27.196 56.9084 25.2492 51.0028 25.2492C45.0944 25.2492 39.5392 27.196 34.9362 30.8778C30.7882 34.195 27.7478 38.7554 26.2756 43.8188L8.02482 38.9871C10.5453 29.9651 15.9536 21.8331 23.3483 15.9842ZM74.3511 51.6909C74.3426 51.9734 74.3285 52.2503 74.3087 52.53C74.2522 53.3975 74.1505 54.2565 74.0007 55.107C73.9922 55.1578 73.9809 55.2059 73.9725 55.2595C73.9414 55.4319 73.9103 55.6043 73.8736 55.7766C73.8283 55.9998 73.7775 56.2202 73.7238 56.4378L73.721 56.4491C72.5229 61.4673 69.6323 66.0136 65.5775 69.2517C61.4012 72.5915 56.3631 74.3575 51.0028 74.3575C45.6426 74.3575 40.6045 72.5944 36.4282 69.2517C32.3734 66.0108 29.4827 61.4617 28.2847 56.4378C27.8608 54.6775 27.6461 52.8465 27.6461 50.9958C27.6461 50.7669 27.6517 50.5352 27.6574 50.3035C27.7054 48.6901 27.9173 47.0965 28.2875 45.5537C29.4856 40.5355 32.3762 35.9864 36.431 32.7455C40.6073 29.4056 45.6454 27.6397 51.0056 27.6397C56.3659 27.6397 61.404 29.4028 65.5803 32.7455C69.6323 35.9864 72.5257 40.5355 73.7238 45.5594C74.1476 47.3197 74.3624 49.1478 74.3624 51.0014C74.3624 51.2303 74.3567 51.462 74.3511 51.6909ZM25.7105 55.8557L7.44274 60.6959C7.43709 60.6705 7.42861 60.6422 7.42296 60.614C7.39188 60.4727 7.36645 60.3314 7.33536 60.193C7.27603 59.9076 7.21669 59.6222 7.163 59.3368C7.13192 59.1729 7.10366 59.0062 7.07541 58.8395C7.02737 58.5768 6.98216 58.314 6.93977 58.0512C6.91152 57.876 6.88609 57.7008 6.86066 57.5285C6.82392 57.2713 6.78719 57.0142 6.75328 56.7571C6.73068 56.5791 6.70807 56.3982 6.68829 56.2202C6.65721 55.9631 6.63178 55.706 6.60352 55.446C6.58374 55.268 6.56679 55.0928 6.55266 54.9148C6.53006 54.6492 6.51028 54.3808 6.4905 54.1124C6.47919 53.9457 6.46789 53.7789 6.45659 53.6094C6.43964 53.3156 6.42833 53.0245 6.41421 52.7307C6.40855 52.5866 6.40008 52.4453 6.39725 52.304C6.38312 51.8689 6.37747 51.4337 6.37747 50.9958C6.37747 50.5606 6.38595 50.1255 6.39725 49.6904C6.40008 49.5463 6.40855 49.405 6.41421 49.2609C6.42551 48.9698 6.43681 48.676 6.45659 48.3849C6.46789 48.2154 6.47919 48.0459 6.4905 47.8763C6.51028 47.6107 6.52723 47.3451 6.55266 47.0795C6.56962 46.9015 6.58374 46.7207 6.60352 46.5455C6.62613 46.2884 6.65721 46.0312 6.68547 45.7769C6.70525 45.5961 6.72785 45.4181 6.75046 45.2373C6.78154 44.983 6.81827 44.7258 6.85783 44.4715C6.88326 44.2935 6.90869 44.1183 6.93695 43.9403C6.97651 43.6776 7.02454 43.4148 7.06975 43.1548C7.09801 42.9881 7.12627 42.8214 7.16017 42.6575C7.21386 42.3693 7.2732 42.0839 7.33254 41.7986C7.3608 41.6601 7.38623 41.5217 7.41731 41.3832C7.42296 41.3549 7.43144 41.3295 7.43709 41.2984L25.7049 46.1386C25.6936 46.2036 25.6794 46.2714 25.6681 46.3392C25.654 46.4184 25.6399 46.4975 25.6257 46.5766C25.5975 46.7376 25.5721 46.9015 25.5466 47.0626C25.5353 47.1304 25.524 47.1954 25.5155 47.2632C25.4845 47.4921 25.4534 47.7209 25.4251 47.9498C25.4223 47.9752 25.4195 47.9978 25.4166 48.0233C25.394 48.2295 25.3714 48.4358 25.3545 48.6421C25.3488 48.7184 25.3432 48.7918 25.3375 48.8681C25.3234 49.0263 25.3121 49.1874 25.3008 49.3456C25.2951 49.4276 25.2895 49.5095 25.2867 49.5943C25.2782 49.7553 25.2697 49.9164 25.2669 50.0803C25.2641 50.1537 25.2584 50.2272 25.2584 50.3007C25.2528 50.5324 25.2471 50.7669 25.2471 50.9986C25.2471 51.2303 25.2528 51.4648 25.2584 51.6965C25.2612 51.77 25.2641 51.8434 25.2669 51.9169C25.2725 52.078 25.2782 52.2418 25.2867 52.4001C25.2923 52.482 25.298 52.564 25.3008 52.6487C25.3121 52.807 25.3234 52.968 25.3375 53.1234C25.3432 53.1997 25.3488 53.2732 25.3545 53.3523C25.3743 53.5557 25.394 53.7592 25.4166 53.9598C25.4223 53.988 25.4223 54.0163 25.4251 54.0445C25.4506 54.2734 25.4816 54.4995 25.5155 54.7283C25.5268 54.8018 25.5381 54.8696 25.5466 54.9403C25.5721 55.1013 25.5947 55.2567 25.6257 55.4149C25.6399 55.4969 25.654 55.5788 25.6709 55.6608C25.6879 55.7229 25.6992 55.7907 25.7105 55.8557ZM78.6545 86.0158C70.7145 92.297 61.1497 95.6171 51.0028 95.6171C40.8531 95.6171 31.2911 92.297 23.3483 86.0158C15.9536 80.1669 10.5453 72.0349 8.02482 63.0129L26.2756 58.1783C27.7478 63.2418 30.7882 67.8022 34.9362 71.1194C39.5392 74.8011 45.0944 76.7479 51.0028 76.7479C56.9112 76.7479 62.4664 74.8011 67.0694 71.1194C71.2175 67.8022 74.2579 63.2418 75.73 58.1812L93.9808 63.0129C91.4604 72.0349 86.0521 80.1669 78.6545 86.0158Z" fill="white"/>
<path d="M17.7987 53.553L15.5467 51.0778L18.0219 48.8259L16.7475 47.4244L14.2723 49.6764L12.0203 47.2012L10.6187 48.4755L12.8708 50.9507L10.3955 53.2027L11.6699 54.6041L14.1451 52.355L16.3972 54.8302L17.7987 53.553Z" fill="white"/>
<path d="M90.3782 53.553L88.1261 51.0778L90.6014 48.8259L89.327 47.4244L86.8489 49.6764L84.5969 47.2012L83.1954 48.4755L85.4474 50.9507L82.9722 53.2027L84.2465 54.6041L86.7218 52.355L88.9738 54.8302L90.3782 53.553Z" fill="white"/>
<path d="M31.5908 33.737C43.3003 31.9174 50.8165 37.7691 50.8165 37.7691C56.6712 46.0198 54.7611 55.7369 54.7611 55.7369C43.6337 50.7752 32.5035 57.5565 32.5035 57.5565C41.0595 47.6332 31.5908 33.737 31.5908 33.737Z" fill="white"/>
<path d="M52.7857 59.2943C52.7857 60.2436 52.2149 61.0489 51.4181 61.371C52.0708 60.9613 52.5173 60.19 52.5173 59.2943C52.5173 58.3985 52.0708 57.6243 51.4181 57.2175C52.2149 57.5396 52.7857 58.3449 52.7857 59.2943ZM51.6809 59.2943C51.6809 60.0798 51.0734 60.7155 50.3246 60.7155C49.5758 60.7155 48.9683 60.0798 48.9683 59.2943C48.9683 58.5087 49.5758 57.873 50.3246 57.873C51.0705 57.873 51.6809 58.5087 51.6809 59.2943ZM53.4638 59.2943C53.4638 57.7176 52.2432 56.4404 50.7371 56.4404C49.231 56.4404 48.0132 57.7176 48.0132 59.2943C48.0132 60.8709 49.231 62.1481 50.7371 62.1481C52.2432 62.1481 53.4638 60.8709 53.4638 59.2943Z" fill="white"/>
<path d="M44.0321 61.7105C43.2805 61.7105 42.6729 61.0719 42.6729 60.2893C42.6729 59.5038 43.2805 58.868 44.0321 58.868C44.7809 58.868 45.3884 59.5038 45.3884 60.2893C45.3912 61.0719 44.7809 61.7105 44.0321 61.7105ZM45.1256 62.3632C45.7783 61.9563 46.2248 61.1821 46.2248 60.2864C46.2248 59.3879 45.7783 58.6165 45.1256 58.2096C45.9253 58.5318 46.4932 59.337 46.4932 60.2864C46.496 61.2358 45.9253 62.0439 45.1256 62.3632ZM44.4474 63.1403C45.9507 63.1403 47.1714 61.8631 47.1714 60.2864C47.1714 58.7098 45.9507 57.4326 44.4474 57.4326C42.9414 57.4326 41.7207 58.7098 41.7207 60.2864C41.7207 61.8631 42.9414 63.1403 44.4474 63.1403Z" fill="white"/>
<path d="M38.0838 62.2048C37.3322 62.2048 36.7247 61.5662 36.7247 60.7835C36.7247 59.998 37.3322 59.3622 38.0838 59.3622C38.8326 59.3622 39.4401 59.998 39.4401 60.7835C39.4401 61.569 38.8326 62.2048 38.0838 62.2048ZM39.1774 62.8603C39.8301 62.4506 40.2765 61.6792 40.2765 60.7835C40.2765 59.885 39.8301 59.1136 39.1774 58.7067C39.977 59.0288 40.545 59.8341 40.545 60.7835C40.545 61.7329 39.977 62.5382 39.1774 62.8603ZM38.4992 63.6373C40.0024 63.6373 41.2231 62.3602 41.2231 60.7835C41.2231 59.2068 40.0024 57.9297 38.4992 57.9297C36.9931 57.9297 35.7725 59.2068 35.7725 60.7835C35.7725 62.3602 36.9931 63.6373 38.4992 63.6373Z" fill="white"/>
<path d="M61.5284 62.363C61.5284 62.363 51.3504 67.0676 42.6757 65.7848C42.6757 65.7848 56.445 65.878 61.5284 55.8586C61.5284 55.8586 58.2506 58.427 53.464 57.9269C53.464 57.9269 62.0285 56.0648 57.7929 46.7207C53.5572 37.3737 60.2427 38.1592 60.2427 38.1592C60.2427 38.1592 58.8186 36.9753 56.5609 36.6645C56.5609 36.6645 60.4546 36.447 63.382 39.0973C63.382 39.0973 61.5905 36.1051 58.1489 34.3984C58.1489 34.3984 63.7267 34.0198 66.0127 39.3573C66.0127 39.3573 68.0895 40.1428 68.7931 42.2507C69.4995 44.3585 72.2602 45.1243 71.825 45.7035C71.3899 46.2827 71.7826 47.3565 70.2879 47.7097C70.2879 47.7097 71.2429 47.1728 70.8897 46.3647C70.5365 45.5594 69.6662 45.4944 68.2308 45.2486C66.7982 44.9999 65.8855 43.0362 65.8855 43.0362C65.8855 43.0362 66.4196 47.9498 68.6066 47.0682C68.6066 47.0682 68.3382 48.0402 66.883 47.9583C65.4306 47.8735 65.3063 48.9925 65.3063 48.9925C65.3063 48.9925 65.2243 47.4836 65.7216 46.9467C66.2189 46.4099 62.7095 44.983 63.1051 42.5417C63.1051 42.5417 59.9065 41.9003 59.3865 43.8867C58.8694 45.8702 67.4227 51.4733 67.3407 57.5539C67.256 63.6345 63.8115 74.0128 32.834 66.9009C32.8368 66.9037 54.4897 71.142 61.5284 62.363Z" fill="white"/>
<path d="M20.8546 69.6797L20.0239 69.7164L17.899 70.9822L17.252 69.8944L24.1635 65.7832L24.8105 66.871L21.8012 68.6596L25.6639 68.3121L26.2997 69.3773L22.3212 69.6966L19.3881 73.4885L18.7241 72.3696L20.8546 69.6797Z" fill="white"/>
<path d="M28.8477 72.4132C29.2743 72.885 29.4665 73.3484 29.4241 73.8033C29.3845 74.2583 29.1246 74.7075 28.6414 75.1455L27.8643 75.8462C27.3811 76.2842 26.9093 76.5017 26.4515 76.4989C25.9966 76.4933 25.553 76.2588 25.1263 75.7869L24.725 75.3461L22.4871 77.3777L21.6338 76.4424L27.5902 71.0371L28.8477 72.4132ZM27.5931 72.7437L25.5812 74.5747L25.9825 75.0155C26.1153 75.1653 26.2565 75.2444 26.4063 75.25C26.5589 75.2557 26.7425 75.1596 26.9601 74.9675L27.8559 74.1537C28.0706 73.9587 28.1808 73.7864 28.1865 73.6366C28.1949 73.484 28.1299 73.3343 27.9971 73.1845L27.5931 72.7437Z" fill="white"/>
<path d="M29.1122 81.8941C29.2761 82.0071 29.4343 82.0495 29.584 82.0241C29.7366 82.0015 29.8949 81.8687 30.0616 81.6285L30.751 80.6395C30.9177 80.4022 30.9884 80.2072 30.963 80.0575C30.9347 79.9049 30.8386 79.7721 30.6747 79.6563L30.1859 79.3144L28.6262 81.5522L29.1122 81.8941ZM26.9336 81.7754L31.5309 75.1777L32.5679 75.8954L30.8443 78.3734L31.3331 78.7153C31.853 79.0798 32.1469 79.4895 32.2034 79.9445C32.2656 80.3965 32.1102 80.8882 31.7372 81.4222L31.1438 82.2812C30.7708 82.8152 30.3611 83.1317 29.9146 83.2278C29.4682 83.3295 28.9822 83.1995 28.4594 82.8322L26.9336 81.7754ZM35.1167 77.6727L36.1537 78.3961L31.5563 84.9937L30.5193 84.2704L35.1167 77.6727Z" fill="white"/>
<path d="M38.6096 85.6749L41.4099 80.6256L43.0572 81.2387L40.2485 88.7745L39.1296 88.3563L41.1442 82.951L38.313 88.0483L37.194 87.6358L38.2903 81.9734L36.3068 87.2996L35.2754 86.9181L38.0841 79.3823L39.7314 80.0011L38.6096 85.6749Z" fill="white"/>
<path d="M50.2749 85.2199L50.8682 85.2256C51.504 85.2312 51.9759 85.4036 52.2811 85.7427C52.5862 86.0817 52.736 86.5818 52.7332 87.2317L52.7219 88.2772C52.7162 88.9299 52.558 89.4215 52.2443 89.755C51.9307 90.0884 51.456 90.2522 50.8202 90.2494L48.9609 90.2325L49.0372 82.1909L52.38 82.2192L52.3687 83.3664L50.2918 83.3494L50.2749 85.2199ZM50.8343 89.0994C51.035 89.0994 51.1875 89.0457 51.2949 88.9412C51.4051 88.8338 51.4616 88.6389 51.4645 88.3478L51.4758 87.1413C51.4786 86.8503 51.4249 86.6525 51.3175 86.5395C51.2101 86.4293 51.0576 86.3756 50.8569 86.3756L50.2636 86.3699L50.241 89.0966L50.8343 89.0994Z" fill="white"/>
<path d="M56.9421 85.0851L58.6488 84.7602L58.8607 85.8904L57.154 86.2153L57.5891 88.5295L59.7366 88.1226L59.9486 89.2528L56.5578 89.8942L55.0771 81.9939L58.4679 81.3525L58.6798 82.4771L56.5324 82.884L56.9421 85.0851Z" fill="white"/>
<path d="M64.3122 80.462L62.9531 81.0327L64.8491 85.5423C65.0045 85.9153 65.0893 86.2403 65.1034 86.52C65.1147 86.7997 65.0723 87.0399 64.9734 87.2433C64.8802 87.4468 64.7417 87.6191 64.5609 87.7604C64.3829 87.9017 64.1851 88.0175 63.9675 88.108C63.8658 88.156 63.7697 88.1955 63.6849 88.2323C63.5974 88.269 63.5013 88.2973 63.3967 88.3199L62.9503 87.2603C63.0181 87.2462 63.0859 87.2236 63.1566 87.1953C63.2272 87.1642 63.295 87.136 63.3628 87.1077C63.5437 87.0286 63.6765 86.9184 63.7697 86.7715C63.863 86.6217 63.8488 86.4041 63.7273 86.1131L61.3481 80.462L65.0328 78.9136L68.1523 86.325L66.9853 86.8138L64.3122 80.462Z" fill="white"/>
<path d="M69.2103 77.6022C69.0295 77.7294 68.9362 77.8735 68.9277 78.0373C68.9164 78.204 68.9956 78.4075 69.1651 78.6448L69.6257 79.2919C69.8122 79.5547 69.993 79.6959 70.1739 79.7157C70.3519 79.7355 70.5384 79.6762 70.7333 79.5377L71.1346 79.2552L69.7104 77.249L69.2103 77.6022ZM71.5189 84.409C71.4793 84.2479 71.4228 84.1038 71.3493 83.9738C71.2787 83.8439 71.1854 83.6998 71.0668 83.5387L70.349 82.5215C70.106 82.1796 69.9478 81.8575 69.8715 81.5495C69.798 81.2415 69.8546 80.9364 70.041 80.6369C69.4392 80.7471 68.9023 80.4645 68.422 79.7892L68.0574 79.2778C67.6958 78.772 67.5488 78.3086 67.6166 77.8876C67.6788 77.4694 67.9812 77.0682 68.518 76.6867L70.0778 75.5791L74.7288 82.1372L73.6918 82.8719L71.8014 80.1989L71.4482 80.4447C71.2137 80.6143 71.0865 80.8007 71.0668 81.0042C71.047 81.2048 71.1459 81.4563 71.3606 81.7643L72.0896 82.7956C72.1829 82.9256 72.2564 83.0358 72.3129 83.1262C72.3722 83.2166 72.4146 83.2929 72.4485 83.3551C72.4796 83.4172 72.5022 83.4737 72.5191 83.5189C72.5333 83.567 72.5502 83.615 72.5672 83.6659L71.5189 84.409Z" fill="white"/>
<path d="M77.2006 78.4312C77.2515 78.3888 77.3024 78.3408 77.3532 78.2842C77.4041 78.2306 77.455 78.174 77.5058 78.1204C77.568 78.0497 77.6217 77.9734 77.6641 77.8915C77.7064 77.8095 77.7262 77.7248 77.7234 77.6372C77.7234 77.5524 77.6923 77.4535 77.6301 77.349C77.5708 77.2416 77.4747 77.1286 77.3419 77.0071L71.6567 74.2804L72.5044 73.3565L76.9209 75.518L74.2224 71.4775L75.0758 70.5479L78.3253 75.7695C78.6332 76.2527 78.8452 76.6482 78.961 76.9591C79.0797 77.2699 79.1249 77.5298 79.1023 77.7361C79.0825 77.9452 79.0119 78.1288 78.8904 78.2842C78.7717 78.4368 78.6332 78.6035 78.4722 78.7787C78.3959 78.8607 78.3281 78.9369 78.2659 79.0076C78.2037 79.0754 78.1303 79.1404 78.0483 79.2082L77.2006 78.4312Z" fill="white"/>
<path d="M82.4318 68.2628L83.3502 68.8053C83.9096 69.1358 84.26 69.5258 84.3985 69.9779C84.5398 70.4243 84.4522 70.916 84.1385 71.45C83.8249 71.9897 83.4349 72.3061 82.9715 72.405C82.5081 72.4983 81.9967 72.3824 81.4344 72.0518L77.8345 69.9298C77.275 69.5964 76.9247 69.2065 76.7862 68.7572C76.6449 68.308 76.7325 67.8135 77.0462 67.2738C77.3598 66.7398 77.7497 66.4261 78.2131 66.3329C78.6765 66.2368 79.188 66.3527 79.7503 66.6861L80.4228 67.076L79.8125 68.1045L79.0721 67.6694C78.8235 67.5253 78.6172 67.4744 78.4533 67.5168C78.2894 67.5564 78.1566 67.6609 78.0521 67.8276C77.9504 68.0028 77.9221 68.1695 77.9645 68.3334C78.0097 68.5001 78.1538 68.6555 78.3996 68.7996L82.1436 71.0064C82.3951 71.1533 82.6014 71.2042 82.7624 71.159C82.9207 71.1137 83.0478 71.0035 83.1524 70.8312C83.2541 70.6645 83.2852 70.4978 83.2456 70.3367C83.2089 70.1757 83.0648 70.0231 82.8161 69.8761L81.8271 69.2941L82.4318 68.2628Z" fill="white"/>
<path d="M16.5588 28.879L23.2217 33.0184C23.5749 33.2388 23.7981 33.5412 23.8942 33.9255C23.9902 34.3097 23.9394 34.6657 23.7359 34.9907L22.7102 36.6436C22.5096 36.9658 22.2129 37.1664 21.8202 37.2511C21.4274 37.3303 21.0601 37.2624 20.7182 37.0449L14.0581 32.9054C13.7049 32.685 13.4817 32.3855 13.3856 31.9984C13.2895 31.6141 13.3376 31.2609 13.5382 30.9388L14.5639 29.2859C14.7674 28.9609 15.064 28.7547 15.454 28.6727C15.8383 28.5908 16.2056 28.6586 16.5588 28.879ZM22.1875 34.3945L15.7818 30.4105L15.0867 31.535L21.4924 35.5191L22.1875 34.3945Z" fill="white"/>
<path d="M26.3873 31.5274L19.6397 25.3168L18.4812 26.577L17.2803 25.4694L20.753 21.6973L21.9539 22.8049L20.7954 24.0651L27.543 30.2757L26.3873 31.5274Z" fill="white"/>
<path d="M27.4298 18.3829L25.5112 19.8437L27.2716 22.1578L28.4358 19.7081L29.5943 21.2339L28.4216 23.6836L30.069 25.8508L31.9876 24.39L32.9709 25.6898L29.6932 28.1791L24.0532 20.7507C23.8017 20.4201 23.7028 20.0613 23.7537 19.6685C23.8017 19.2729 23.9769 18.9593 24.2764 18.7332L26.4437 17.0859L27.4298 18.3829Z" fill="white"/>
<path d="M34.0886 12.875L38.8866 22.5526L37.3551 23.3126L33.2805 15.0959L32.0966 15.6836L35.5156 22.578C35.6936 22.9397 35.7219 23.3126 35.6032 23.6969C35.4845 24.0784 35.2556 24.3524 34.9137 24.522L33.8711 25.0391L33.1477 23.5782L33.9134 23.2024L29.8389 14.9857L34.0886 12.875Z" fill="white"/>
<path d="M40.2523 14.8132L41.6368 19.9924L42.9084 19.6505L41.5238 14.4713L40.2523 14.8132ZM41.4051 12.8155C41.7781 12.7194 42.1313 12.7703 42.4704 12.9737C42.8066 13.1772 43.0299 13.4823 43.1429 13.8864L44.5981 19.3623C44.7055 19.7551 44.6603 20.128 44.4681 20.4812C44.2788 20.8316 43.9991 21.0548 43.6261 21.1537L40.3992 22.0127L37.6216 11.5751L39.2746 11.1343L39.8341 13.2365C39.8341 13.2337 40.3568 13.0952 41.4051 12.8155Z" fill="white"/>
<path d="M50.2197 20.222L50.6916 9.43115L54.023 9.57243C54.4073 9.59221 54.7323 9.75327 54.9951 10.0499C55.2578 10.3438 55.3793 10.6998 55.3596 11.1152L55.2607 13.4406C55.2437 13.7825 55.1674 14.0679 55.0318 14.2996C54.9414 14.472 54.8057 14.6161 54.6249 14.7291L55.2013 14.7573L55.0177 18.9476C54.9979 19.363 54.8453 19.7106 54.5571 19.9846C54.2689 20.2559 53.9354 20.3802 53.5512 20.3604L50.2197 20.222ZM53.5455 13.3643L53.6388 11.1858L52.3277 11.1293L52.2033 14.0057L53.5455 13.3643ZM53.4579 15.2914L52.1157 15.9215L51.9971 18.6623L53.311 18.7216L53.4579 15.2914Z" fill="white"/>
<path d="M59.3638 16.3682L62.5426 10.994L64.2041 11.4009L61.6017 21.8837L59.943 21.4796L61.3841 15.6759L58.2052 21.0445L56.5522 20.6376L59.1547 10.1548L60.8077 10.5617L59.3638 16.3682Z" fill="white"/>
<path d="M64.6407 23.1774L63.1035 22.4427L67.7658 12.7002L69.303 13.4348L67.3533 17.5037L68.848 17.4387L70.4897 14.0056L72.0382 14.7403L70.3993 18.1733C70.2496 18.4841 70.0659 18.7243 69.8455 18.891C69.6279 19.0549 69.351 19.1453 69.0091 19.1566H68.8565L68.4977 25.0196L66.856 24.237L67.2374 19.199L66.531 19.2272L64.6407 23.1774Z" fill="white"/>
<path d="M73.2247 22.6012L78.277 18.9166L79.6361 19.948L73.1089 28.5546L71.7497 27.5233L75.3637 22.7622L70.3171 26.4383L68.958 25.407L75.4852 16.8003L76.8444 17.8316L73.2247 22.6012Z" fill="white"/>
<path d="M80.0135 28.6415L78.6176 28.1103L75.3964 30.9471L74.2661 29.67L82.3729 22.5298L83.5031 23.8069L80.0474 26.8529L81.4489 27.3841L84.3734 24.7987L85.5037 26.0872L77.3997 33.2274L76.2695 31.9389L80.0135 28.6415Z" fill="white"/>
<path d="M87.6119 29.0342L89.7368 32.5548L88.3352 33.3968L87.0863 31.337L79.2339 36.067L78.3579 34.6062L87.6119 29.0342Z" fill="white"/>
</g>
<defs>
<clipPath id="clip0_132_1270">
<rect width="102" height="102" fill="white"/>
</clipPath>
</defs>
</svg>
