<svg width="13" height="22" viewBox="0 0 13 22" fill="none" xmlns="http://www.w3.org/2000/svg">
<g clip-path="url(#clip0_266_455)">
<path d="M8.68394 0.35302C5.69662 -0.726301 2.37966 0.766592 1.26714 3.69186C0.164925 6.62721 1.68949 9.87526 4.67681 10.9546C7.67443 12.0339 10.9914 10.541 12.0936 7.61574C13.1958 4.68039 11.6713 1.43234 8.68394 0.35302ZM8.94147 6.46581C8.47792 7.68635 7.09757 8.31175 5.85114 7.85783C4.6047 7.414 3.96603 6.05224 4.42958 4.8317C4.89313 3.61116 6.27348 2.98576 7.51992 3.43968C8.76635 3.8936 9.40502 5.24527 8.94147 6.46581Z" fill="white"/>
<path d="M7.2725 15.3223C6.67503 14.707 5.66552 14.6869 5.03716 15.282L0.885809 19.1958C0.257441 19.7808 0.236839 20.7694 0.844605 21.3847C1.44207 22 2.45158 22.0202 3.07995 21.425L7.23129 17.5112C7.85966 16.9262 7.88026 15.9377 7.2725 15.3223Z" fill="white"/>
<path d="M5.87165 15.2719C5.24328 15.8569 5.22268 16.8455 5.83044 17.4608L9.82728 21.5259C10.4247 22.1412 11.4342 22.1614 12.0626 21.5662C12.691 20.9812 12.7116 19.9926 12.1038 19.3773L8.10699 15.3122C7.50953 14.707 6.50002 14.6868 5.87165 15.2719Z" fill="white"/>
<path d="M11.9494 11.7313C11.4446 11.5498 10.9089 11.6304 10.4969 11.9028C7.94223 13.1233 5.28454 13.3654 2.44143 11.7212C2.35902 11.6708 2.26631 11.6304 2.1736 11.5901C1.33921 11.2875 0.422415 11.7011 0.113381 12.5181C-0.195652 13.3352 0.226693 14.2329 1.06108 14.5355C4.53256 16.3411 8.13795 16.7648 12.0009 14.6667C12.4026 14.5053 12.7425 14.1825 12.8971 13.7588C13.2061 12.9418 12.7837 12.0339 11.9494 11.7313Z" fill="white"/>
</g>
<defs>
<clipPath id="clip0_266_455">
<rect width="13" height="22" fill="white"/>
</clipPath>
</defs>
</svg>
