<svg width="139" height="36" viewBox="0 0 139 36" fill="none" xmlns="http://www.w3.org/2000/svg">
<g clip-path="url(#clip0_216_890)">
<path d="M78.9454 19.6629C78.0255 19.6629 77.2798 18.9184 77.2798 18C77.2798 17.0817 78.0255 16.3372 78.9454 16.3372C79.8653 16.3372 80.6111 17.0817 80.6111 18C80.6111 18.9184 79.8653 19.6629 78.9454 19.6629Z" fill="#3F576E"/>
<path d="M71.3671 19.6629C70.4471 19.6629 69.7014 18.9184 69.7014 18C69.7014 17.0817 70.4471 16.3372 71.3671 16.3372C72.287 16.3372 73.0327 17.0817 73.0327 18C73.0327 18.9184 72.287 19.6629 71.3671 19.6629Z" fill="#3F576E"/>
<path d="M63.3702 19.6629C62.4503 19.6629 61.7046 18.9184 61.7046 18C61.7046 17.0817 62.4503 16.3372 63.3702 16.3372C64.2901 16.3372 65.0359 17.0817 65.0359 18C65.0359 18.9184 64.2901 19.6629 63.3702 19.6629Z" fill="#3F576E"/>
<path d="M134.433 22.5591C136.951 22.5591 139 20.514 139 18C139 15.486 136.951 13.4409 134.433 13.4409C131.915 13.4409 129.866 15.486 129.866 18C129.866 20.514 131.915 22.5591 134.433 22.5591ZM134.433 14.9856C136.099 14.9856 137.453 16.3372 137.453 18C137.453 19.6629 136.099 21.0145 134.433 21.0145C132.768 21.0145 131.414 19.6629 131.414 18C131.414 16.3372 132.768 14.9856 134.433 14.9856Z" fill="#3F576E"/>
<path d="M85.754 18.7723H134.433C134.859 18.7723 135.207 18.4256 135.207 18C135.207 17.5744 134.859 17.2277 134.433 17.2277H85.754C85.3277 17.2277 84.9803 17.5744 84.9803 18C84.9803 18.4256 85.3237 18.7723 85.754 18.7723Z" fill="#3F576E"/>
<path d="M129.093 36C128.895 36 128.698 35.9252 128.544 35.7754L111.288 18.5477C110.984 18.2443 110.984 17.7557 111.288 17.4523L128.544 0.224632C128.848 -0.0787835 129.338 -0.0787835 129.641 0.224632C129.945 0.528047 129.945 1.01666 129.641 1.32008L112.933 18L129.641 34.68C129.945 34.9834 129.945 35.472 129.641 35.7754C129.488 35.9252 129.29 36 129.093 36Z" fill="#3F576E"/>
<path d="M120.449 36C120.251 36 120.054 35.9252 119.9 35.7754L102.644 18.5477C102.34 18.2443 102.34 17.7557 102.644 17.4523L119.9 0.224632C120.204 -0.0787835 120.693 -0.0787835 120.997 0.224632C121.301 0.528047 121.301 1.01666 120.997 1.32008L104.289 18L120.997 34.68C121.301 34.9834 121.301 35.472 120.997 35.7754C120.843 35.9252 120.646 36 120.449 36Z" fill="#3F576E"/>
<path d="M15.5712 18.7723H55.7405C56.301 18.7723 56.7549 18.4256 56.7549 18C56.7549 17.5744 56.301 17.2277 55.7405 17.2277H15.5712C15.0107 17.2277 14.5568 17.5744 14.5568 18C14.5568 18.4256 15.0146 18.7723 15.5712 18.7723Z" fill="#3F576E"/>
<path d="M15.3343 27.1655C15.4685 27.1655 15.6027 27.13 15.7211 27.063C15.9619 26.9251 16.1079 26.669 16.1079 26.3932V9.60681C16.1079 9.33098 15.9619 9.07485 15.7211 8.93693C15.4803 8.79902 15.1843 8.79902 14.9475 8.93693L0.390677 17.3301C0.149906 17.468 0.00387192 17.7241 0.00387192 18C0.00387192 18.2758 0.149906 18.5319 0.390677 18.6699L14.9475 27.063C15.0659 27.13 15.2001 27.1655 15.3343 27.1655ZM14.5607 10.9466V25.0495L2.32475 17.996L14.5607 10.9466Z" fill="#3F576E"/>
<path d="M15.3344 27.1655C15.6028 27.1655 15.8633 27.0276 16.0054 26.7793C16.2185 26.4089 16.0922 25.9361 15.7212 25.7233L2.32483 18L15.7212 10.2767C16.0922 10.0639 16.2185 9.59108 16.0054 9.22068C15.7922 8.85027 15.3186 8.72418 14.9475 8.93696L0.390752 17.3301C0.149981 17.468 0.0039463 17.7242 0.0039463 18C0.0039463 18.2758 0.149981 18.532 0.390752 18.6699L14.9475 27.0631C15.0699 27.13 15.2041 27.1655 15.3344 27.1655Z" fill="#3F576E"/>
</g>
<defs>
<clipPath id="clip0_216_890">
<rect width="139" height="36" fill="white" transform="matrix(-1 0 0 1 139 0)"/>
</clipPath>
</defs>
</svg>
