<svg width="57" height="19" viewBox="0 0 57 19" fill="none" xmlns="http://www.w3.org/2000/svg">
<path d="M15.5673 9.93882H55.7366C56.2971 9.93882 56.751 9.59206 56.751 9.16649C56.751 8.74092 56.2971 8.39417 55.7366 8.39417H15.5673C15.0068 8.39417 14.5529 8.74092 14.5529 9.16649C14.5529 9.59206 15.0107 9.93882 15.5673 9.93882Z" fill="#D6C19C"/>
<path d="M15.3299 18.332C15.4641 18.332 15.5983 18.2965 15.7167 18.2295C15.9575 18.0916 16.1035 17.8355 16.1035 17.5597V0.773314C16.1035 0.497482 15.9575 0.241353 15.7167 0.103437C15.4759 -0.034479 15.1799 -0.034479 14.9431 0.103437L0.386283 8.49661C0.145512 8.63452 -0.000522614 8.89065 -0.000522614 9.16648C-0.000522614 9.44232 0.145512 9.69845 0.386283 9.83636L14.9431 18.2295C15.0615 18.2965 15.1957 18.332 15.3299 18.332ZM14.5563 2.11307V16.216L2.32036 9.16254L14.5563 2.11307Z" fill="#D6C19C"/>
<path d="M15.3309 18.332C15.5993 18.332 15.8599 18.1941 16.002 17.9458C16.2151 17.5754 16.0888 17.1026 15.7178 16.8898L2.32141 9.16651L15.7178 1.44322C16.0888 1.23044 16.2151 0.757582 16.002 0.387179C15.7888 0.0167762 15.3152 -0.109318 14.9441 0.103466L0.387334 8.49664C0.146563 8.63455 0.000528336 8.89068 0.000528336 9.16651C0.000528336 9.44234 0.146563 9.69847 0.387334 9.83639L14.9441 18.2296C15.0665 18.2965 15.2007 18.332 15.3309 18.332Z" fill="#D6C19C"/>
</svg>
