<svg width="57" height="19" viewBox="0 0 57 19" fill="none" xmlns="http://www.w3.org/2000/svg">
<path d="M41.1837 9.93882H1.0144C0.453916 9.93882 0 9.59206 0 9.16649C0 8.74092 0.453916 8.39417 1.0144 8.39417H41.1837C41.7442 8.39417 42.1981 8.74092 42.1981 9.16649C42.1981 9.59206 41.7403 9.93882 41.1837 9.93882Z" fill="#D6C19C"/>
<path d="M41.4201 18.332C41.2859 18.332 41.1517 18.2965 41.0333 18.2295C40.7925 18.0916 40.6465 17.8355 40.6465 17.5597V0.773314C40.6465 0.497482 40.7925 0.241353 41.0333 0.103437C41.2741 -0.034479 41.5701 -0.034479 41.8069 0.103437L56.3637 8.49661C56.6045 8.63452 56.7505 8.89065 56.7505 9.16648C56.7505 9.44232 56.6045 9.69845 56.3637 9.83636L41.8069 18.2295C41.6885 18.2965 41.5543 18.332 41.4201 18.332ZM42.1937 2.11307V16.216L54.4296 9.16254L42.1937 2.11307Z" fill="#D6C19C"/>
<path d="M41.421 18.332C41.1526 18.332 40.8921 18.1941 40.75 17.9458C40.5369 17.5754 40.6632 17.1026 41.0342 16.8898L54.4305 9.16651L41.0342 1.44322C40.6632 1.23044 40.5369 0.757582 40.75 0.387179C40.9631 0.0167762 41.4368 -0.109318 41.8078 0.103466L56.3646 8.49664C56.6054 8.63455 56.7514 8.89068 56.7514 9.16651C56.7514 9.44234 56.6054 9.69847 56.3646 9.83639L41.8078 18.2296C41.6855 18.2965 41.5513 18.332 41.421 18.332Z" fill="#D6C19C"/>
</svg>
