<svg width="23" height="23" viewBox="0 0 23 23" fill="none" xmlns="http://www.w3.org/2000/svg">
<g clip-path="url(#clip0_6_19)">
<path d="M19.642 3.34129C17.48 1.19005 14.605 0 11.546 0C5.244 0 0.092 5.10348 0.092 11.397C0.092 13.4109 0.621 15.3562 1.61 17.0955L0 23L6.072 21.4209C7.751 22.3363 9.637 22.8169 11.546 22.8169C17.848 22.8169 23 17.7134 23 11.4199C23 8.35323 21.804 5.49254 19.642 3.34129ZM11.546 20.8716C9.844 20.8716 8.165 20.4139 6.693 19.5443L6.348 19.3383L2.76 20.2995L3.726 16.798L3.496 16.4318C2.553 14.9214 2.047 13.1821 2.047 11.397C2.024 6.1791 6.302 1.92239 11.546 1.92239C14.099 1.92239 16.468 2.90647 18.285 4.69154C20.079 6.47662 21.068 8.85672 21.068 11.397C21.068 16.6149 16.79 20.8716 11.546 20.8716ZM16.767 13.7771C16.491 13.6398 15.065 12.9532 14.812 12.8617C14.559 12.7701 14.352 12.7244 14.168 12.999C13.984 13.2736 13.432 13.9144 13.271 14.1204C13.11 14.3035 12.926 14.3264 12.65 14.1891C12.374 14.0517 11.431 13.7542 10.35 12.7701C9.499 12.0149 8.924 11.0766 8.763 10.802C8.602 10.5274 8.74 10.3672 8.878 10.2299C9.016 10.0925 9.154 9.88657 9.315 9.72637C9.453 9.56617 9.499 9.45174 9.591 9.24577C9.683 9.06269 9.637 8.8796 9.568 8.74229C9.499 8.60497 8.924 7.20895 8.694 6.63682C8.464 6.08756 8.234 6.15622 8.05 6.15622C7.889 6.15622 7.682 6.15622 7.498 6.15622C7.314 6.15622 6.992 6.22488 6.739 6.52239C6.486 6.79701 5.727 7.50647 5.727 8.90249C5.727 10.2985 6.762 11.6488 6.9 11.8547C7.038 12.0378 8.924 14.9214 11.799 16.1572C12.489 16.4547 13.018 16.6149 13.432 16.7522C14.122 16.9582 14.743 16.9353 15.226 16.8667C15.778 16.7751 16.928 16.1801 17.158 15.5164C17.388 14.8527 17.388 14.2806 17.319 14.1662C17.25 13.9831 17.066 13.9144 16.767 13.7771Z" fill="#F5F5F5"/>
</g>
<defs>
<clipPath id="clip0_6_19">
<rect width="23" height="23" fill="white"/>
</clipPath>
</defs>
</svg>
