<svg width="21" height="18" viewBox="0 0 21 18" fill="none" xmlns="http://www.w3.org/2000/svg">
<g clip-path="url(#clip0_6_23)">
<path d="M19.4745 0.200411L0.822523 7.45848C0.822523 7.45848 -0.0623481 7.75571 0.00732678 8.30871C0.0770016 8.8617 0.794653 9.11746 0.794653 9.11746L5.48377 10.6866L5.49074 10.6935V10.6866L16.7502 3.58751C16.7502 3.58751 17.3982 3.1935 17.3773 3.58751C17.3773 3.58751 17.4957 3.65663 17.1473 3.98152C16.799 4.3064 8.29863 11.8824 8.29863 11.8824L8.2847 12.0276L15.935 17.8479C17.21 18.4009 17.6769 17.2465 17.6769 17.2465L21.0004 0.635895C21.0004 -0.470096 19.4675 0.200411 19.4745 0.200411Z" fill="#F5F5F5"/>
<path d="M11.2106 14.2535L8.17975 16.9977C8.17975 16.9977 7.94286 17.1774 7.68506 17.0668L8.26336 11.9724" fill="#F5F5F5"/>
</g>
<defs>
<clipPath id="clip0_6_23">
<rect width="21" height="18" fill="white"/>
</clipPath>
</defs>
</svg>
