<svg width="170" height="172" viewBox="0 0 170 172" fill="none" xmlns="http://www.w3.org/2000/svg">
<path d="M139.422 112.683L149.579 116.903L152.655 109.499L142.498 105.279L141.674 107.262L150.062 110.747L148.634 114.185L140.246 110.7L139.422 112.683Z" fill="white"/>
<path d="M139.162 123.834C140.952 124.934 142.021 125.556 143.53 125.196C144.55 124.953 145.39 124.382 146.054 123.303C146.718 122.224 146.856 121.203 146.613 120.183C146.254 118.674 145.209 118.013 143.42 116.913C141.63 115.812 140.569 115.178 139.06 115.537C138.04 115.78 137.191 116.364 136.528 117.443C135.864 118.522 135.734 119.53 135.977 120.55C136.336 122.059 137.373 122.733 139.162 123.834ZM140.287 122.005C138.498 120.904 138.137 120.519 137.952 119.934C137.811 119.484 137.852 118.947 138.159 118.447C138.467 117.947 138.928 117.669 139.401 117.578C140.006 117.479 140.505 117.641 142.295 118.742C144.084 119.842 144.467 120.223 144.651 120.808C144.784 121.27 144.73 121.799 144.423 122.299C144.115 122.799 143.667 123.086 143.202 123.163C142.597 123.262 142.077 123.105 140.287 122.005Z" fill="white"/>
<path d="M131.252 130.125L132.656 128.46C132.11 127.717 131.971 126.852 132.658 126.037C133.036 125.588 133.51 125.362 133.981 125.355C134.594 125.346 135.097 125.588 136.704 126.943C138.31 128.297 138.633 128.752 138.729 129.358C138.801 129.823 138.658 130.329 138.279 130.777C137.592 131.592 136.726 131.589 135.902 131.177L134.487 132.854C136.506 134.031 138.419 133.583 139.744 132.012C140.56 131.044 140.839 130.066 140.76 129.01C140.629 127.464 139.694 126.656 138.088 125.301C136.482 123.947 135.527 123.162 133.981 123.294C132.927 123.394 132.01 123.834 131.194 124.802C129.879 126.361 129.751 128.334 131.252 130.125Z" fill="white"/>
<path d="M120.161 135.306L127.207 143.751L128.832 142.395L127.217 135.998L133.233 138.724L134.858 137.368L127.812 128.923L126.163 130.298L130.27 135.221L125.973 133.374L124.858 134.304L125.917 138.853L121.81 133.93L120.161 135.306Z" fill="white"/>
<path d="M114.383 145.06C115.43 146.882 116.073 147.938 117.57 148.342C118.583 148.615 119.594 148.515 120.692 147.884C121.79 147.252 122.399 146.421 122.673 145.409C123.077 143.911 122.475 142.832 121.428 141.011C120.381 139.189 119.751 138.126 118.254 137.721C117.241 137.448 116.217 137.556 115.118 138.187C114.02 138.819 113.424 139.642 113.151 140.654C112.747 142.152 113.336 143.239 114.383 145.06ZM116.245 143.99C115.198 142.169 115.064 141.657 115.181 141.055C115.272 140.593 115.564 140.141 116.073 139.848C116.582 139.555 117.12 139.531 117.579 139.677C118.158 139.879 118.519 140.259 119.566 142.081C120.613 143.902 120.768 144.419 120.65 145.021C120.546 145.491 120.246 145.93 119.738 146.223C119.229 146.515 118.698 146.553 118.253 146.399C117.674 146.198 117.292 145.811 116.245 143.99Z" fill="white"/>
<path d="M107.091 151.876L107.792 153.658L115.137 150.766L114.436 148.984L111.762 150.037L108.435 141.585L106.437 142.371L109.764 150.823L107.091 151.876Z" fill="white"/>
<path d="M96.5405 152.955C96.9666 154.775 98.6308 155.987 100.857 155.466L105.008 154.494L102.501 143.785L100.41 144.275L101.354 148.306L99.2935 148.788C97.0674 149.309 96.1145 151.135 96.5405 152.955ZM98.6312 152.465C98.427 151.593 98.8913 150.865 99.8389 150.644L101.794 150.186L102.481 153.119L100.526 153.577C99.5779 153.798 98.8355 153.338 98.6312 152.465Z" fill="white"/>
<path d="M85.1008 146.317L85.8063 157.293L87.7179 157.17L91.5363 149.866L91.9881 156.896L94.1309 156.758L93.4254 145.782L91.5139 145.905L87.6965 153.224L87.2436 146.179L85.1008 146.317Z" fill="white"/>
<path d="M74.9313 154.609L74.7528 156.517L82.6123 157.252L82.7908 155.345L79.93 155.077L80.7762 146.033L78.6382 145.833L77.792 154.877L74.9313 154.609Z" fill="white"/>
<path d="M67.4693 143.611L67.012 145.471L71.9623 146.688L71.3243 149.284L67.109 148.247L66.6517 150.107L70.867 151.144L70.2511 153.649L65.3008 152.432L64.8435 154.292L71.879 156.022L74.5048 145.341L67.4693 143.611Z" fill="white"/>
<path d="M60.4597 140.854L55.6854 150.763L57.6198 151.695L62.3941 141.786L60.4597 140.854ZM54.6008 138.031L55.7262 145.055L50.1605 148.101L52.4706 149.214L57.9446 146.039L56.9666 139.171L54.6008 138.031Z" fill="white"/>
<path d="M44.7915 137.893C43.6073 139.629 42.9363 140.667 43.224 142.191C43.4186 143.222 43.9491 144.088 44.9954 144.802C46.0418 145.516 47.0552 145.703 48.0857 145.509C49.6098 145.221 50.3192 144.209 51.5033 142.473C52.6875 140.738 53.3713 139.708 53.0835 138.184C52.889 137.154 52.3457 136.278 51.2994 135.564C50.253 134.85 49.2523 134.672 48.2219 134.867C46.6977 135.155 45.9756 136.158 44.7915 137.893ZM46.5651 139.104C47.7493 137.368 48.1515 137.026 48.7444 136.869C49.1999 136.75 49.7348 136.816 50.2197 137.146C50.7046 137.477 50.9608 137.951 51.0285 138.428C51.0991 139.037 50.9138 139.528 49.7297 141.263C48.5455 142.998 48.1474 143.363 47.5544 143.519C47.0862 143.63 46.56 143.551 46.0751 143.22C45.5902 142.889 45.3253 142.428 45.2703 141.96C45.1998 141.351 45.381 140.839 46.5651 139.104Z" fill="white"/>
<path d="M35.8984 132.596C34.6223 133.962 34.5392 136.02 36.2098 137.58L39.3252 140.491L46.8341 132.454L45.2651 130.988L42.4387 134.014L40.8923 132.569C39.2217 131.008 37.1745 131.23 35.8984 132.596ZM37.4674 134.062C38.0791 133.407 38.9419 133.389 39.653 134.053L41.1204 135.424L39.0639 137.626L37.5965 136.255C36.8854 135.59 36.8557 134.717 37.4674 134.062Z" fill="white"/>
<path d="M31.1598 123.492C29.5126 124.796 28.5628 125.587 28.3836 127.128C28.2625 128.169 28.5108 129.155 29.297 130.148C30.0833 131.141 30.9952 131.621 32.0368 131.742C33.5775 131.921 34.5561 131.166 36.2033 129.862C37.8505 128.558 38.8099 127.779 38.989 126.239C39.1102 125.197 38.8523 124.199 38.066 123.206C37.2798 122.213 36.3775 121.745 35.3359 121.624C33.7951 121.445 32.807 122.188 31.1598 123.492ZM32.4926 125.175C34.1398 123.871 34.6258 123.664 35.2384 123.691C35.7088 123.713 36.1998 123.935 36.5642 124.395C36.9285 124.855 37.032 125.384 36.9548 125.859C36.8407 126.462 36.5177 126.875 34.8705 128.179C33.2233 129.483 32.7348 129.712 32.1221 129.685C31.6422 129.651 31.1633 129.419 30.7989 128.959C30.4346 128.499 30.319 127.979 30.4058 127.517C30.5199 126.914 30.8454 126.479 32.4926 125.175Z" fill="white"/>
<path d="M23.3673 117.382L21.7102 118.343L25.6696 125.172L27.3268 124.211L25.8856 121.725L33.7436 117.169L32.6665 115.312L24.8085 119.868L23.3673 117.382Z" fill="white"/>
<path d="M29.8721 109.652L19.6532 113.72L20.4474 115.715L30.6662 111.647L29.8721 109.652ZM27.4667 103.61L23.5441 109.544L17.3849 108.022L18.3334 110.405L24.5129 111.769L28.438 106.05L27.4667 103.61Z" fill="white"/>
<path d="M20.3298 96.8268C18.2824 97.2978 17.0849 97.605 16.2619 98.9198C15.7055 99.8086 15.5069 100.805 15.7909 102.04C16.0748 103.274 16.6926 104.099 17.5814 104.656C18.8962 105.479 20.104 105.217 22.1515 104.746C24.1989 104.275 25.3998 103.982 26.2228 102.668C26.7792 101.779 26.9744 100.767 26.6904 99.5325C26.4064 98.298 25.7921 97.4883 24.9033 96.9319C23.5885 96.1089 22.3772 96.3558 20.3298 96.8268ZM20.8112 98.9194C22.8586 98.4484 23.3866 98.4696 23.9283 98.7571C24.3438 98.9786 24.692 99.3899 24.8236 99.9619C24.9552 100.534 24.8217 101.056 24.5482 101.452C24.1866 101.947 23.7175 102.182 21.6701 102.653C19.6226 103.124 19.0831 103.121 18.5414 102.834C18.1224 102.597 17.7892 102.183 17.6576 101.61C17.526 101.038 17.6445 100.52 17.9215 100.139C18.2831 99.6437 18.7638 99.3904 20.8112 98.9194Z" fill="white"/>
<path d="M24.9489 86.7328L23.0384 86.8704L23.4046 91.955L20.739 92.147L20.4272 87.8173L18.5166 87.955L18.8284 92.2846L16.2553 92.4699L15.8891 87.3853L13.9785 87.5229L14.499 94.7492L25.4694 93.9591L24.9489 86.7328Z" fill="white"/>
<path d="M20.3997 74.2361C20.0248 73.2614 19.324 72.708 18.2843 72.5585C16.4494 72.2947 15.0982 73.4426 14.8036 75.4915L14.1748 79.8646L25.0617 81.43L25.7169 76.8735C26.0115 74.8245 24.9882 73.3664 23.0769 73.0916C22.3124 72.9817 21.6722 73.0925 21.0994 73.4939C20.8371 73.6903 20.6906 73.8409 20.3997 74.2361ZM18.8841 78.3724L16.3764 78.0118L16.6755 75.9323C16.8008 75.0608 17.3517 74.5938 18.1316 74.7059C18.9114 74.818 19.3084 75.4214 19.1831 76.2929L18.8841 78.3724ZM23.4713 79.032L20.7954 78.6473L21.1142 76.4301C21.2395 75.5586 21.8233 75.0807 22.649 75.1994C23.4747 75.3181 23.9154 75.9433 23.7901 76.8149L23.4713 79.032Z" fill="white"/>
<path d="M29.0897 63.8854L18.6224 60.5075L18.0341 62.3304L23.4237 68.566L16.7199 66.4027L16.0605 68.4461L26.5278 71.824L27.1161 70.0011L21.7117 63.7607L28.4302 65.9288L29.0897 63.8854Z" fill="white"/>
<path d="M36.2547 55.0019L32.4022 52.9683L31.8109 54.0886L23.778 49.8484L20.6844 55.7091L23.1708 57.0215C25.4112 58.2042 27.2866 59.6483 28.1043 61.1105L27.6212 62.0258L31.4737 64.0594L32.44 62.2288L30.2815 61.0894L33.1299 55.6931L35.2884 56.8325L36.2547 55.0019ZM30.8085 55.9875L29.2221 58.993C28.2229 57.6097 26.6709 56.5458 24.7446 55.5291L23.3375 54.7863L24.4697 52.6415L30.8085 55.9875Z" fill="white"/>
<path d="M39.3899 46.7759L37.8646 45.6171L34.7807 49.6763L32.6527 48.0596L35.2787 44.6031L33.7534 43.4443L31.1274 46.9008L29.0732 45.3402L32.1571 41.281L30.6318 40.1222L26.249 45.8912L35.0071 52.5449L39.3899 46.7759Z" fill="white"/>
<path d="M42.2315 36.1066C40.766 34.6013 39.8817 33.7374 38.3308 33.7166C37.2822 33.7026 36.3272 34.0503 35.4196 34.934C34.512 35.8176 34.1277 36.7738 34.1137 37.8223C34.0929 39.3733 34.944 40.2695 36.4095 41.7749C37.8751 43.2802 38.7482 44.1549 40.2992 44.1756C41.3477 44.1897 42.3138 43.8312 43.2214 42.9475C44.1291 42.0639 44.5022 41.1185 44.5163 40.0699C44.537 38.519 43.6971 37.6119 42.2315 36.1066ZM40.693 37.6045C42.1585 39.1098 42.4145 39.5721 42.45 40.1843C42.4765 40.6544 42.3058 41.1655 41.8852 41.575C41.4646 41.9845 40.9491 42.1415 40.4688 42.1132C39.8577 42.0613 39.4136 41.7823 37.948 40.277C36.4825 38.7717 36.2046 38.3091 36.1691 37.6969C36.1537 37.216 36.3352 36.7159 36.7558 36.3065C37.1764 35.897 37.6812 35.7289 38.1504 35.768C38.7614 35.8199 39.2274 36.0992 40.693 37.6045Z" fill="white"/>
<path d="M53.5197 28.238C52.3991 26.4609 51.7137 25.432 50.201 25.0893C49.1782 24.8577 48.1718 24.9993 47.1003 25.6749C46.0288 26.3506 45.4542 27.206 45.2226 28.2288C44.8799 29.7415 45.526 30.7951 46.6466 32.5722C47.7672 34.3492 48.4395 35.3863 49.9523 35.729C50.975 35.9607 51.9945 35.8109 53.066 35.1352C54.1375 34.4595 54.699 33.6123 54.9307 32.5896C55.2734 31.0769 54.6403 30.015 53.5197 28.238ZM51.7034 29.3833C52.824 31.1604 52.9784 31.6658 52.8858 32.272C52.814 32.7373 52.5408 33.2018 52.0443 33.5149C51.5477 33.8281 51.0108 33.8744 50.5469 33.7469C49.96 33.5692 49.5835 33.2039 48.4629 31.4268C47.3422 29.6498 47.1666 29.1396 47.2592 28.5333C47.344 28.0598 47.6255 27.6083 48.122 27.2952C48.6186 26.9821 49.1472 26.9226 49.5981 27.0584C50.185 27.2361 50.5828 27.6063 51.7034 29.3833Z" fill="white"/>
<path d="M68.4603 27.9618L64.7438 17.6099L62.7228 18.3355L64.2418 22.5664L60.7378 23.8244L59.2189 19.5935L57.1979 20.319L60.9144 30.6709L62.9354 29.9454L61.3799 25.6127L64.8838 24.3547L66.4393 28.6874L68.4603 27.9618Z" fill="white"/>
<path d="M78.5524 25.9003L72.5548 15.8438L70.9005 16.1579L69.0214 27.71L71.2221 27.2922L71.5116 25.256L75.3513 24.5269L76.3518 26.3182L78.5524 25.9003ZM74.4526 22.8579L71.7663 23.3679L72.3859 19.1778L74.4526 22.8579Z" fill="white"/>
<path d="M91.7905 25.728L91.8471 14.7293L89.6999 14.7182L89.6532 23.8014L86.5328 23.7854L86.5795 14.7022L84.4323 14.6911L84.3855 23.7743L81.2497 23.7582L81.2964 14.675L79.1492 14.6639L79.0926 25.6626L91.7905 25.728Z" fill="white"/>
<path d="M100.659 27.5727L101.039 25.6953L96.0428 24.6843L96.5728 22.0649L100.827 22.9257L101.207 21.0483L96.9526 20.1874L97.4642 17.6589L102.461 18.6698L102.841 16.7923L95.7395 15.3556L93.5584 26.136L100.659 27.5727Z" fill="white"/>
<path d="M111.656 31.5688L115.688 21.3355L113.718 20.5598L108.88 25.0457L108.386 18.4591L106.417 17.6834L102.386 27.9168L104.383 28.7038L106.733 22.7391L107.174 27.3955L108.525 27.9277L112.008 24.8171L109.658 30.7818L111.656 31.5688Z" fill="white"/>
<path d="M125.943 34.1321C127.139 32.4054 127.818 31.3721 127.541 29.8459C127.354 28.814 126.83 27.9433 125.789 27.2217C124.748 26.5001 123.736 26.3061 122.704 26.4932C121.178 26.7698 120.461 27.7768 119.264 29.5035C118.068 31.2302 117.376 32.2547 117.653 33.7809C117.84 34.8128 118.377 35.6923 119.418 36.4139C120.459 37.1355 121.458 37.3207 122.49 37.1336C124.017 36.857 124.746 35.8588 125.943 34.1321ZM124.178 32.909C122.981 34.6357 122.576 34.9755 121.982 35.1276C121.526 35.2436 120.992 35.1739 120.509 34.8396C120.027 34.5052 119.774 34.0292 119.71 33.5524C119.644 32.9427 119.832 32.4534 121.029 30.7266C122.226 28.9999 122.627 28.6386 123.221 28.4865C123.69 28.3793 124.215 28.4617 124.698 28.796C125.18 29.1304 125.442 29.5937 125.493 30.0617C125.56 30.6714 125.375 31.1822 124.178 32.909Z" fill="white"/>
<path d="M135.332 37.8244L136.64 36.4247L130.872 31.0356L129.564 32.4353L131.663 34.3969L125.462 41.034L127.031 42.4999L133.232 35.8628L135.332 37.8244Z" fill="white"/>
<path d="M134.412 50.8911L135.905 49.6911L132.712 45.7175L134.795 44.0434L137.514 47.427L139.007 46.227L136.288 42.8434L138.299 41.2274L141.492 45.201L142.985 44.001L138.447 38.3537L129.873 45.2437L134.412 50.8911Z" fill="white"/>
<path d="M139.563 59.4804L149.119 54.0346L145.73 48.0889L141.395 50.5594C138.402 52.2651 137.448 51.9018 136.905 50.9489L136.752 50.6805L135.088 51.6289L135.509 52.3671C136.641 54.3534 138.3 54.706 142.313 52.4191L145.091 50.8358L146.391 53.1174L138.499 57.6148L139.563 59.4804Z" fill="white"/>
<path d="M142.891 67.9331L144.684 67.2585L142.889 62.4873L145.39 61.5462L146.919 65.6089L148.712 64.9343L147.183 60.8716L149.598 59.9631L151.393 64.7342L153.186 64.0597L150.634 57.2788L140.34 61.1523L142.891 67.9331Z" fill="white"/>
<rect x="153.658" y="82" width="2.35389" height="9.41557" transform="rotate(45 153.658 82)" fill="#D6C19C"/>
<rect x="147" y="83.6645" width="2.35389" height="9.41557" transform="rotate(-45 147 83.6645)" fill="#D6C19C"/>
</svg>
