<svg width="20" height="11" viewBox="0 0 20 11" fill="none" xmlns="http://www.w3.org/2000/svg">
<g clip-path="url(#clip0_266_462)">
<path d="M0.191536 1.66388C0.0233515 1.24339 -0.191552 0.804999 0.317675 0.56791C1.35014 0.55449 2.38261 0.54107 3.41975 0.52765C3.86825 0.54107 4.07381 0.858679 4.31207 1.30154C5.00817 2.5854 5.7323 3.86478 6.60592 5.04127C6.8909 5.42598 7.3721 5.5736 7.75052 4.96075C7.79256 4.13318 7.83461 3.30561 7.87666 2.47804C7.7365 1.51626 7.38612 0.948146 6.77411 0.889993C6.42372 0.563437 6.676 0.295035 7.46086 0.151888C8.70824 -0.103094 9.79677 0.0132134 10.7545 0.129521C11.5627 0.178728 11.6795 0.702111 11.6655 1.30154C11.6375 2.39752 11.6141 3.49796 11.6141 4.59394C11.8524 5.7078 12.4877 5.26047 12.9082 4.77735C13.6603 3.75295 14.3144 2.75539 14.861 1.63257C15.4263 0.478443 15.5805 0.563437 15.9776 0.558964C16.9259 0.55449 17.9724 0.509757 18.7293 0.536597C20.3083 0.44713 20.1261 1.11813 19.6823 1.8294C18.9161 3.06852 17.9304 4.18686 17.0521 5.36783C16.5195 6.0612 16.5288 6.49512 17.0941 6.87088C17.9304 7.75213 18.8367 8.57523 19.5982 9.51464C20.4251 10.539 19.8178 10.8209 19.0469 10.8969C18.1266 10.8969 17.2063 10.8969 16.2859 10.8969C15.501 10.9103 14.7909 10.7224 14.291 9.92171C13.1371 8.45892 12.2775 8.05632 11.9318 8.87942C11.7823 9.24176 11.6561 9.72936 11.6608 10.2035C11.6655 10.8656 11.2497 10.9193 10.6844 10.9372C10.0771 10.9372 9.44638 11.0803 8.85773 10.9372C6.77411 10.4317 4.77458 9.50122 2.82643 6.30276C1.94814 4.92049 1.06984 3.4085 0.191536 1.66388Z" fill="white"/>
</g>
<defs>
<clipPath id="clip0_266_462">
<rect width="20" height="11" fill="white"/>
</clipPath>
</defs>
</svg>
